<?xml version="1.0" encoding="utf-8"?>
<!-- Generator: Adobe Illustrator 27.5.0, SVG Export Plug-In . SVG Version: 6.00 Build 0)  -->
<svg version="1.1" xmlns="http://www.w3.org/2000/svg" xmlns:xlink="http://www.w3.org/1999/xlink" x="0px" y="0px"
	 viewBox="0 0 500 500" style="enable-background:new 0 0 500 500;" xml:space="preserve">
<g id="Background_Complete">
	<g>
		<g>
			<g>
				<g>
					<g>
						<path style="fill:#EBEBEB;" d="M204.49,456.095c23.411-15.202,29.605-44.682,29.604-71.37
							c0.001-4.455,0.648-9.129-1.336-13.106c-1.986-3.975-6.833-6.811-10.881-5.071c-3.357,1.444-4.928,5.239-6.884,8.355
							c-2.603,4.147-6.386,7.522-10.774,9.614c-2.883,1.374-6.42,2.154-9.165,0.517c-3.766-2.248-4.039-7.566-3.862-11.992
							c0.332-8.247,0.662-16.494,0.994-24.74c0.178-4.424,0.344-8.943-0.89-13.19c-1.234-4.247-4.143-8.252-8.313-9.574
							c-4.171-1.322-9.459,0.929-10.495,5.231c-0.431,1.79-0.128,3.674-0.313,5.507c-0.185,1.833-1.11,3.837-2.872,4.289
							c-1.784,0.459-3.512-0.856-4.791-2.196c-4.417-4.623-7.321-10.485-10.024-16.308c-2.703-5.823-5.316-11.779-9.295-16.794
							c-3.979-5.015-9.582-9.071-15.907-9.645c-6.327-0.573-13.212,3.109-15.025,9.277c-1.818,6.185,1.608,12.639,5.397,17.824
							c5.622,7.693,12.35,14.555,19.904,20.304c1.361,1.037,2.837,2.159,3.315,3.816c0.861,2.983-2.034,5.819-4.98,6.69
							c-3.336,0.987-6.904,0.523-10.368,0.812c-3.465,0.289-7.255,1.685-8.671,4.902c-1.966,4.462,1.656,9.332,5.273,12.564
							c7.243,6.472,15.588,11.673,24.556,15.307c3.215,1.302,6.606,2.463,9.154,4.839c2.548,2.378,3.997,6.408,2.306,9.471
							c-1.693,3.067-5.798,3.927-9.187,3.178c-3.387-0.747-6.378-2.703-9.586-4.039c-6.004-2.502-13.872-2.349-17.947,2.775
							c-2.677,3.368-3.066,8.172-1.911,12.334c1.154,4.162,3.661,7.799,6.338,11.165c9.36,11.767,21.527,21.398,35.47,26.768
							C177.267,458.98,190.295,460.747,204.49,456.095"/>
					</g>
				</g>
			</g>
			<g>
				<g>
					<g>
						<g>
							<path style="fill:#E0E0E0;" d="M201.77,456.963c-0.608-10.593-0.101-4.236-3.594-17.813
								c-3.467-13.586-8.503-28.164-14.294-43.23c-1.462-3.76-2.906-7.477-4.329-11.139c-1.429-3.652-2.846-7.275-4.451-10.732
								c-3.181-6.93-6.767-13.351-10.361-19.339c-3.593-5.992-7.221-11.547-10.651-16.716c-3.443-5.164-6.742-9.917-9.934-14.12
								c-6.36-8.434-12.284-14.617-16.524-18.695c-2.116-2.047-3.809-3.581-4.972-4.605c-0.559-0.487-0.998-0.869-1.328-1.157
								c-0.302-0.256-0.462-0.383-0.471-0.372c-0.01,0.011,0.131,0.158,0.415,0.435c0.317,0.302,0.739,0.705,1.274,1.216
								c1.125,1.064,2.782,2.634,4.862,4.712c4.165,4.144,10.003,10.365,16.285,18.819c3.154,4.214,6.418,8.974,9.831,14.147
								c3.403,5.182,7.005,10.742,10.573,16.729c3.567,5.984,7.125,12.389,10.277,19.285c1.591,3.441,2.992,7.033,4.422,10.695
								c1.421,3.661,2.863,7.376,4.323,11.135c5.785,15.054,10.83,29.589,14.328,43.124c3.521,13.525,3.066,7.107,3.744,17.658"/>
						</g>
					</g>
				</g>
			</g>
			<g>
				<g>
					<g>
						<g>
							<path style="fill:#E0E0E0;" d="M174.87,374.009c0.055,0.011,0.228-0.657,0.496-1.873c0.274-1.215,0.612-2.985,0.998-5.179
								c0.775-4.385,1.639-10.478,2.566-17.198c0.927-6.725,1.875-12.787,2.715-17.148c0.414-2.181,0.766-3.945,1.026-5.16
								c0.253-1.217,0.367-1.898,0.312-1.913c-0.054-0.014-0.272,0.639-0.619,1.836c-0.355,1.194-0.795,2.944-1.281,5.118
								c-0.988,4.347-2.031,10.421-2.958,17.152c-0.898,6.634-1.71,12.636-2.33,17.222c-0.293,2.07-0.542,3.814-0.741,5.214
								C174.884,373.311,174.814,373.999,174.87,374.009z"/>
						</g>
					</g>
				</g>
			</g>
			<g>
				<g>
					<g>
						<g>
							<path style="fill:#E0E0E0;" d="M118.33,361.445c-0.003,0.056,0.803,0.178,2.261,0.349c1.456,0.18,3.563,0.428,6.157,0.818
								c5.192,0.739,12.329,2.012,20.142,3.76c7.812,1.763,14.814,3.659,19.838,5.177c2.519,0.741,4.541,1.396,5.941,1.84
								c1.399,0.45,2.181,0.673,2.202,0.62c0.019-0.054-0.728-0.379-2.098-0.924c-1.371-0.537-3.371-1.278-5.874-2.094
								c-4.995-1.664-11.997-3.656-19.832-5.426c-7.836-1.752-15.016-2.939-20.244-3.532c-2.612-0.317-4.735-0.479-6.204-0.559
								C119.148,361.402,118.335,361.387,118.33,361.445z"/>
						</g>
					</g>
				</g>
			</g>
			<g>
				<g>
					<g>
						<g>
							<path style="fill:#E0E0E0;" d="M197.511,438.08c0.026,0.013,0.167-0.221,0.414-0.68c0.282-0.548,0.626-1.216,1.043-2.026
								c0.898-1.763,2.13-4.348,3.611-7.561c2.966-6.425,6.784-15.43,10.863-25.423c4.082-9.997,7.811-19.025,10.639-25.503
								c1.385-3.149,2.525-5.738,3.372-7.663c0.363-0.836,0.661-1.525,0.906-2.091c0.199-0.481,0.291-0.74,0.266-0.754
								c-0.026-0.011-0.167,0.223-0.414,0.682c-0.282,0.547-0.626,1.215-1.043,2.024c-0.898,1.763-2.13,4.348-3.611,7.561
								c-2.966,6.425-6.784,15.43-10.865,25.427c-4.08,9.994-7.809,19.021-10.637,25.5c-1.386,3.147-2.525,5.738-3.372,7.662
								c-0.363,0.836-0.661,1.526-0.906,2.091C197.578,437.809,197.486,438.067,197.511,438.08z"/>
						</g>
					</g>
				</g>
			</g>
			<g>
				<g>
					<g>
						<g>
							<path style="fill:#E0E0E0;" d="M122.726,411.146c-0.008,0.027,0.247,0.142,0.74,0.335c0.585,0.218,1.302,0.486,2.171,0.81
								c2.006,0.727,4.714,1.707,8.008,2.898c6.761,2.449,16.061,5.939,26.331,9.809c10.273,3.873,19.615,7.279,26.428,9.589
								c3.407,1.156,6.172,2.063,8.096,2.651c0.89,0.266,1.623,0.485,2.219,0.664c0.51,0.143,0.783,0.205,0.791,0.177
								c0.008-0.027-0.247-0.141-0.74-0.336c-0.583-0.217-1.301-0.484-2.171-0.809c-2.006-0.727-4.712-1.706-8.007-2.898
								c-6.761-2.448-16.062-5.939-26.336-9.81c-10.27-3.871-19.61-7.278-26.424-9.587c-3.407-1.156-6.172-2.064-8.097-2.651
								c-0.89-0.266-1.622-0.486-2.219-0.664C123.007,411.18,122.736,411.119,122.726,411.146z"/>
						</g>
					</g>
				</g>
			</g>
		</g>
		<g>
			<g>
				<path style="fill:#EBEBEB;" d="M395.565,230.623c0,0-12.064-6.378-23.213,22.075c-11.149,28.453-14.847,44.594-14.847,44.594
					s-3.093,6.036-7.357,2.708c-4.264-3.328-10.64-13.331-17.082-10.784c-6.682,2.641-8.192,10.536-5.774,21.681
					c2.418,11.146,6.82,35.759,7.209,37.986c0.383,2.186-0.56,5.556-3.828,3.754c-3.268-1.802-22.808-19.688-30.74-9.908
					c-7.932,9.78,3.906,39.723,5.138,43.021c1.231,3.298,0.711,4.81-0.815,5.806s-7.528-5.635-13.294-10.494
					c-5.766-4.859-13.303-9.483-17.407-3.457c-4.103,6.026-3.321,29.289,22.366,64.676l12.976,15.618l20.156-3.115
					c42.728-9.295,58.803-26.128,59.754-33.357c0.952-7.228-7.751-8.798-15.288-9.012c-7.537-0.214-16.43,0.736-16.906-1.023
					c-0.476-1.759,0.143-3.234,3.258-4.874c3.115-1.641,31.886-16.096,32.481-28.674c0.595-12.578-25.893-12.247-29.531-13.079
					c-3.638-0.832-2.098-3.974-0.356-5.35c1.774-1.402,21.448-16.833,30.674-23.538c9.226-6.705,13.356-13.6,10.13-20.02
					c-3.111-6.19-14.528-2.973-19.925-3.33c-5.397-0.357-3.685-6.919-3.685-6.919s7.99-14.504,18.62-43.155
					c10.63-28.651-2.967-31.943-2.967-31.943"/>
			</g>
			<g>
				<g>
					<path style="fill:#E0E0E0;" d="M309.394,453.503c7.889-21.011,19.033-49.947,31.445-81.871
						c12.408-31.914,23.615-60.818,31.611-81.787c3.98-10.471,7.204-18.952,9.443-24.843c1.11-2.913,1.975-5.184,2.573-6.753
						c0.293-0.751,0.521-1.333,0.684-1.751c0.157-0.393,0.253-0.589,0.253-0.589s-0.055,0.211-0.193,0.611
						c-0.149,0.423-0.357,1.012-0.625,1.772c-0.572,1.579-1.4,3.864-2.462,6.795c-2.144,5.898-5.307,14.411-9.256,24.915
						c-7.889,21.011-19.032,49.944-31.44,81.857c-12.412,31.925-23.62,60.832-31.616,81.801"/>
				</g>
			</g>
			<g>
				<g>
					<path style="fill:#E0E0E0;" d="M341.287,303.39c0.04-0.016,0.268,0.455,0.644,1.321c0.381,0.864,0.893,2.129,1.513,3.699
						c1.233,3.141,2.824,7.522,4.494,12.389c1.628,4.805,3.101,9.15,4.227,12.474c0.517,1.495,0.953,2.756,1.304,3.77
						c0.312,0.889,0.466,1.389,0.425,1.405c-0.04,0.016-0.271-0.452-0.654-1.316c-0.378-0.866-0.892-2.132-1.495-3.708
						c-1.202-3.154-2.736-7.555-4.404-12.421c-1.662-4.791-3.165-9.124-4.315-12.439c-0.525-1.493-0.968-2.753-1.324-3.766
						C341.396,303.907,341.246,303.406,341.287,303.39z"/>
				</g>
			</g>
			<g>
				<g>
					<path style="fill:#E0E0E0;" d="M355.786,338.624c-0.064-0.162,8.824-3.842,19.851-8.218c11.03-4.378,20.021-7.794,20.085-7.632
						c0.064,0.162-8.823,3.841-19.853,8.218C364.843,335.369,355.85,338.786,355.786,338.624z"/>
				</g>
			</g>
			<g>
				<g>
					<path style="fill:#E0E0E0;" d="M334.517,386.782c-0.003-0.044,0.526-0.118,1.484-0.215c1.087-0.103,2.445-0.232,4.057-0.384
						c3.424-0.329,8.15-0.804,13.346-1.519c5.199-0.703,9.882-1.504,13.268-2.11c1.594-0.284,2.936-0.523,4.011-0.715
						c0.949-0.164,1.478-0.234,1.487-0.192c0.009,0.043-0.502,0.194-1.436,0.432c-0.934,0.237-2.291,0.556-3.977,0.912
						c-3.369,0.72-8.054,1.592-13.268,2.298c-5.211,0.717-9.958,1.122-13.397,1.338c-1.72,0.101-3.112,0.167-4.076,0.184
						C335.053,386.834,334.52,386.825,334.517,386.782z"/>
				</g>
			</g>
			<g>
				<g>
					<path style="fill:#E0E0E0;" d="M314.388,357.798c0.035-0.025,0.355,0.351,0.902,1.053c0.617,0.818,1.375,1.823,2.269,3.008
						c1.894,2.556,4.475,6.111,7.294,10.061c2.82,3.951,5.343,7.548,7.144,10.17c0.83,1.231,1.533,2.274,2.106,3.124
						c0.486,0.746,0.738,1.17,0.702,1.195c-0.035,0.025-0.355-0.351-0.902-1.053c-0.617-0.818-1.375-1.822-2.269-3.007
						c-1.894-2.556-4.475-6.112-7.295-10.063c-2.819-3.95-5.342-7.546-7.143-10.168c-0.83-1.231-1.534-2.274-2.106-3.124
						C314.605,358.248,314.353,357.824,314.388,357.798z"/>
				</g>
			</g>
			<g>
				<g>
					<path style="fill:#E0E0E0;" d="M290.211,397.927c0.035-0.026,0.44,0.459,1.141,1.359c0.762,1.001,1.744,2.293,2.923,3.843
						c2.446,3.262,5.789,7.793,9.45,12.821c3.662,5.029,6.949,9.603,9.302,12.932c1.114,1.598,2.041,2.929,2.76,3.961
						c0.641,0.944,0.978,1.478,0.943,1.503c-0.035,0.026-0.44-0.46-1.141-1.359c-0.761-1.001-1.744-2.293-2.923-3.843
						c-2.445-3.262-5.789-7.793-9.451-12.823c-3.661-5.028-6.947-9.601-9.3-12.93c-1.114-1.598-2.041-2.929-2.761-3.961
						C290.514,398.487,290.176,397.953,290.211,397.927z"/>
				</g>
			</g>
			<g>
				<g>
					<path style="fill:#E0E0E0;" d="M316.341,433.297c-0.004-0.043,0.663-0.155,1.873-0.32c1.322-0.173,3.047-0.4,5.126-0.673
						c4.327-0.573,10.3-1.386,16.868-2.471c6.572-1.075,12.494-2.205,16.775-3.052c2.057-0.406,3.764-0.742,5.072-1
						c1.199-0.232,1.867-0.339,1.877-0.297c0.01,0.042-0.639,0.231-1.823,0.537c-1.183,0.305-2.902,0.72-5.034,1.197
						c-4.262,0.96-10.182,2.161-16.765,3.238c-6.579,1.087-12.573,1.832-16.917,2.291c-2.173,0.224-3.934,0.388-5.153,0.474
						C317.021,433.311,316.346,433.34,316.341,433.297z"/>
				</g>
			</g>
		</g>
		<g>
			<g>
				<g>
					<path style="fill:#EBEBEB;" d="M374.444,158.393c0,0-5.745,7.508-16.93,5.375c-6.923-1.323-20.644-1.968-22.418,3.119
						l2.069,15.437c0,0,9.081-2.368,18.355-0.15c9.115,2.182,22.267-4.275,22.267-4.275L374.444,158.393z"/>
				</g>
				<g>
					<g>
						<path style="fill:#F5F5F5;" d="M355.803,179.958c-5.056-0.473-7.645-5.368-6.616-9.109c1.03-3.741,6.606-5.468,10.346-4.439
							c3.742,1.032,5.938,4.899,4.909,8.64C363.413,178.792,359.667,180.32,355.803,179.958z"/>
					</g>
					<g>
						<g>
							<path style="fill:#EBEBEB;" d="M354.695,177.206c0.023-0.117,0.32-0.158,0.817-0.181c0.493-0.029,1.203-0.034,1.961-0.249
								c0.368-0.107,0.751-0.284,1.069-0.54c0.312-0.247,0.554-0.602,0.586-0.921c0.055-0.342-0.082-0.761-0.337-0.987
								c-0.22-0.221-0.667-0.332-1.308-0.342c-0.316-0.009-0.663-0.002-1.04-0.028c-0.377-0.026-0.795-0.081-1.22-0.254
								c-0.214-0.09-0.419-0.207-0.606-0.353c-0.19-0.148-0.363-0.331-0.493-0.533c-0.266-0.403-0.379-0.861-0.378-1.291
								c0.002-0.432,0.114-0.844,0.318-1.2c0.212-0.363,0.474-0.617,0.757-0.817c0.563-0.396,1.146-0.54,1.656-0.605
								c0.52-0.059,0.963-0.016,1.343,0.046c0.376,0.062,0.688,0.151,0.931,0.235c0.496,0.174,0.747,0.332,0.728,0.443
								c-0.018,0.116-0.313,0.174-0.817,0.201c-0.494,0.039-1.222,0.026-1.965,0.236c-0.366,0.11-0.748,0.285-1.026,0.539
								c-0.284,0.263-0.411,0.544-0.383,0.888c0.015,0.164,0.071,0.316,0.158,0.426c0.043,0.059,0.093,0.101,0.155,0.144
								c0.068,0.047,0.141,0.085,0.23,0.118c0.355,0.141,0.968,0.123,1.701,0.135c0.37,0.011,0.772,0.037,1.201,0.155
								c0.215,0.062,0.428,0.146,0.637,0.258c0.209,0.117,0.41,0.262,0.572,0.433c0.674,0.69,0.881,1.627,0.699,2.446
								c-0.194,0.863-0.764,1.424-1.311,1.768c-0.554,0.347-1.121,0.501-1.635,0.564c-1.022,0.103-1.783-0.105-2.279-0.271
								C354.918,177.49,354.672,177.316,354.695,177.206z"/>
						</g>
					</g>
					<g>
						<g>
							<path style="fill:#EBEBEB;" d="M358.569,178.952c-0.229,0.027-0.712-2.471-1.077-5.579c-0.368-3.111-0.48-5.654-0.252-5.681
								c0.229-0.027,0.712,2.471,1.08,5.581C358.69,176.382,358.798,178.925,358.569,178.952z"/>
						</g>
					</g>
					<g>
						<g>
							<path style="fill:#EBEBEB;" d="M357.275,178.818c-0.229,0.029-0.685-2.24-1.016-5.06c-0.333-2.824-0.415-5.134-0.186-5.161
								c0.229-0.027,0.685,2.24,1.015,5.062C357.421,176.481,357.503,178.79,357.275,178.818z"/>
						</g>
					</g>
				</g>
				<g style="opacity:0.5;">
					<path style="fill:#FAFAFA;" d="M338.465,180.678l-1.828-14.051l0.118-0.086c5.468-4.024,15.56-2.334,22.239-1.216
						c1.15,0.193,2.237,0.375,3.174,0.506c6.276,0.883,10.94-4.057,11.066-4.625l0.492-0.022l2.22,15.126l-0.13,0.087
						c-7.969,5.289-17.448,5.234-23.144,3.581c-5.319-1.543-13.849,0.609-13.935,0.632L338.465,180.678z M337.166,166.855
						l1.719,13.206c1.534-0.367,8.955-2.002,13.923-0.56c5.564,1.614,14.802,1.676,22.601-3.431l-2.074-14.125
						c-0.351,0.428-0.832,0.863-0.971,0.988c-1.104,0.979-5.106,4.116-10.266,3.39c-0.943-0.133-2.033-0.316-3.187-0.509
						C352.364,164.719,342.494,163.066,337.166,166.855z"/>
				</g>
			</g>
		</g>
		<g>
			<g>
				<g>
					<path style="fill:#EBEBEB;" d="M295.613,73.215c0,0-8.959,3.018-17.045-5c-5.004-4.965-16.023-13.165-20.336-9.936
						l-6.908,13.959c0,0,8.855,3.108,15.308,10.129c6.341,6.901,20.857,8.893,20.857,8.893L295.613,73.215z"/>
				</g>
				<g>
					<g>
						<path style="fill:#F5F5F5;" d="M268.106,80.688c-3.929-3.217-3.342-8.723-0.399-11.25c2.944-2.528,8.534-0.845,11.061,2.098
							c2.527,2.946,2.188,7.381-0.755,9.909C275.069,83.972,271.108,83.147,268.106,80.688z"/>
					</g>
					<g>
						<g>
							<path style="fill:#EBEBEB;" d="M268.724,77.786c0.084-0.084,0.354,0.048,0.778,0.306c0.425,0.251,1.017,0.643,1.766,0.888
								c0.365,0.117,0.781,0.184,1.188,0.149c0.397-0.031,0.796-0.19,1-0.437c0.237-0.253,0.357-0.677,0.272-1.007
								c-0.059-0.306-0.368-0.648-0.894-1.014c-0.257-0.184-0.549-0.372-0.847-0.604c-0.298-0.232-0.614-0.512-0.87-0.892
								c-0.127-0.194-0.232-0.406-0.306-0.632c-0.075-0.229-0.116-0.477-0.111-0.718c0.004-0.483,0.167-0.926,0.407-1.282
								c0.243-0.357,0.566-0.636,0.934-0.818c0.379-0.183,0.738-0.247,1.084-0.255c0.688-0.014,1.252,0.192,1.712,0.424
								c0.464,0.241,0.808,0.524,1.088,0.788c0.277,0.261,0.486,0.509,0.641,0.715c0.315,0.421,0.434,0.693,0.356,0.774
								c-0.08,0.086-0.357-0.03-0.79-0.289c-0.432-0.244-1.028-0.662-1.762-0.902c-0.365-0.113-0.78-0.181-1.152-0.126
								c-0.383,0.059-0.646,0.222-0.814,0.523c-0.079,0.144-0.117,0.302-0.107,0.442c0.003,0.073,0.021,0.136,0.048,0.206
								c0.03,0.076,0.07,0.149,0.125,0.226c0.215,0.316,0.734,0.642,1.336,1.062c0.301,0.216,0.62,0.462,0.91,0.8
								c0.144,0.171,0.274,0.36,0.384,0.57c0.108,0.214,0.194,0.446,0.233,0.679c0.173,0.948-0.178,1.842-0.786,2.419
								c-0.643,0.607-1.43,0.754-2.076,0.734c-0.653-0.021-1.209-0.211-1.671-0.446c-0.905-0.485-1.421-1.083-1.739-1.498
								C268.75,78.146,268.644,77.865,268.724,77.786z"/>
						</g>
					</g>
					<g>
						<g>
							<path style="fill:#EBEBEB;" d="M270.962,81.399c-0.204-0.105,0.79-2.448,2.224-5.229c1.433-2.786,2.76-4.958,2.965-4.852
								c0.205,0.105-0.79,2.447-2.222,5.233C272.498,79.335,271.167,81.505,270.962,81.399z"/>
						</g>
					</g>
					<g>
						<g>
							<path style="fill:#EBEBEB;" d="M269.964,80.564c-0.206-0.105,0.683-2.241,1.984-4.765c1.301-2.528,2.524-4.49,2.728-4.384
								c0.205,0.105-0.683,2.241-1.986,4.765C271.391,78.708,270.168,80.67,269.964,80.564z"/>
						</g>
					</g>
				</g>
				<g style="opacity:0.5;">
					<path style="fill:#FAFAFA;" d="M253.323,71.6l6.333-12.675l0.146-0.005c6.783-0.283,14.209,6.756,19.125,11.415
						c0.846,0.802,1.646,1.561,2.35,2.193c4.711,4.239,11.34,2.747,11.762,2.346l0.42,0.257l-6.608,13.786l-0.157-0.001
						c-9.564-0.065-17.396-5.406-21.197-9.959c-3.55-4.251-11.827-7.232-11.91-7.261L253.323,71.6z M259.968,59.41l-5.952,11.913
						c1.477,0.553,8.546,3.342,11.861,7.314c3.713,4.447,11.341,9.659,20.662,9.78l6.171-12.874
						c-0.53,0.159-1.172,0.251-1.358,0.276c-1.462,0.196-6.534,0.562-10.408-2.923c-0.708-0.638-1.51-1.398-2.359-2.202
						C273.767,66.127,266.503,59.242,259.968,59.41z"/>
				</g>
			</g>
		</g>
		<g>
			<g>
				<g>
					<path style="fill:#F5F5F5;" d="M169.306,141.194c0,0-9.431-0.653-13.819-11.161c-2.714-6.505-9.74-18.308-14.962-16.982
						l-11.738,10.238c0,0,6.983,6.27,10.246,15.23c3.205,8.807,15.844,16.219,15.844,16.219L169.306,141.194z"/>
				</g>
				<g>
					<g>
						<path style="fill:#EBEBEB;" d="M141.038,137.533c-2.393-4.479,0.263-9.337,3.951-10.541c3.689-1.204,8.204,2.496,9.408,6.183
							c1.203,3.691-0.813,7.655-4.502,8.86C146.207,143.238,142.866,140.956,141.038,137.533z"/>
					</g>
					<g>
						<g>
							<path style="fill:#F5F5F5;" d="M142.723,135.091c0.11-0.045,0.308,0.18,0.601,0.582c0.296,0.395,0.692,0.984,1.289,1.498
								c0.292,0.248,0.65,0.47,1.04,0.594c0.378,0.124,0.808,0.13,1.091-0.019c0.315-0.142,0.589-0.488,0.638-0.826
								c0.063-0.306-0.091-0.74-0.436-1.28c-0.167-0.268-0.364-0.554-0.55-0.883c-0.186-0.329-0.37-0.708-0.46-1.158
								c-0.042-0.228-0.058-0.464-0.04-0.701c0.018-0.24,0.076-0.485,0.173-0.705c0.189-0.444,0.51-0.791,0.868-1.027
								c0.362-0.237,0.767-0.37,1.176-0.396c0.42-0.023,0.776,0.055,1.099,0.181c0.641,0.252,1.082,0.658,1.418,1.048
								c0.336,0.401,0.545,0.794,0.702,1.145c0.155,0.348,0.253,0.657,0.318,0.906c0.129,0.51,0.135,0.806,0.032,0.851
								c-0.106,0.049-0.318-0.165-0.619-0.571c-0.305-0.391-0.695-1.006-1.281-1.509c-0.293-0.245-0.65-0.466-1.016-0.559
								c-0.376-0.092-0.681-0.043-0.952,0.17c-0.128,0.103-0.224,0.234-0.268,0.367c-0.025,0.069-0.033,0.133-0.035,0.209
								c-0.002,0.082,0.007,0.164,0.029,0.257c0.078,0.374,0.431,0.875,0.825,1.493c0.195,0.314,0.395,0.665,0.533,1.088
								c0.067,0.213,0.115,0.438,0.136,0.674c0.018,0.239,0.008,0.487-0.046,0.716c-0.204,0.942-0.872,1.632-1.655,1.932
								c-0.827,0.314-1.61,0.148-2.198-0.119c-0.595-0.271-1.036-0.659-1.372-1.053c-0.65-0.795-0.896-1.545-1.03-2.051
								C142.609,135.434,142.618,135.132,142.723,135.091z"/>
						</g>
					</g>
					<g>
						<g>
							<path style="fill:#F5F5F5;" d="M143.402,139.286c-0.148-0.176,1.669-1.957,4.061-3.975c2.392-2.022,4.452-3.518,4.6-3.342
								c0.149,0.176-1.669,1.957-4.061,3.979C145.613,137.97,143.551,139.462,143.402,139.286z"/>
						</g>
					</g>
					<g>
						<g>
							<path style="fill:#F5F5F5;" d="M142.801,138.132c-0.15-0.176,1.491-1.807,3.662-3.638c2.172-1.835,4.054-3.177,4.203-3.001
								c0.149,0.176-1.491,1.806-3.663,3.638C144.831,136.966,142.949,138.308,142.801,138.132z"/>
						</g>
					</g>
				</g>
				<g style="opacity:0.5;">
					<path style="fill:#EBEBEB;" d="M130.878,123.466l10.714-9.272l0.137,0.051c6.372,2.343,10.527,11.694,13.277,17.882
						c0.473,1.066,0.921,2.073,1.328,2.927c2.723,5.723,9.417,6.891,9.96,6.682l0.29,0.399l-11.395,10.192l-0.144-0.061
						c-8.806-3.732-13.987-11.67-15.748-17.334c-1.646-5.288-8.144-11.218-8.21-11.277L130.878,123.466z M141.693,114.761
						l-10.07,8.715c1.152,1.078,6.608,6.367,8.144,11.307c1.721,5.532,6.763,13.272,15.324,16.963l10.641-9.518
						c-0.551-0.057-1.179-0.218-1.36-0.266c-1.426-0.381-6.249-1.99-8.489-6.695c-0.409-0.86-0.857-1.87-1.333-2.94
						C151.855,126.261,147.792,117.116,141.693,114.761z"/>
				</g>
			</g>
		</g>
		<g>
			<g>
				<g>
					<path style="fill:#F5F5F5;" d="M101.409,229.668c0,0-1.859,6.263-9.606,7.642c-4.796,0.852-13.813,3.815-13.705,7.537
						l5.139,9.457c0,0,5.279-3.766,11.813-4.619c6.422-0.837,13.323-8.246,13.323-8.246L101.409,229.668z"/>
				</g>
				<g>
					<g>
						<path style="fill:#EBEBEB;" d="M94.687,248.183c-3.381,0.94-6.258-1.582-6.515-4.251c-0.257-2.669,2.918-5.158,5.586-5.415
							c2.67-0.256,5.041,1.7,5.298,4.369C99.313,245.555,97.271,247.465,94.687,248.183z"/>
					</g>
					<g>
						<g>
							<path style="fill:#F5F5F5;" d="M93.293,246.679c-0.014-0.081,0.168-0.181,0.483-0.318c0.311-0.141,0.768-0.318,1.204-0.644
								c0.211-0.16,0.415-0.368,0.557-0.612c0.141-0.236,0.209-0.525,0.151-0.739c-0.049-0.234-0.241-0.471-0.461-0.554
								c-0.197-0.089-0.512-0.05-0.929,0.102c-0.206,0.072-0.429,0.162-0.679,0.238c-0.25,0.076-0.533,0.143-0.85,0.136
								c-0.16-0.006-0.322-0.031-0.479-0.079c-0.159-0.048-0.316-0.124-0.45-0.223c-0.271-0.194-0.457-0.463-0.562-0.74
								c-0.105-0.28-0.134-0.573-0.09-0.853c0.048-0.287,0.154-0.515,0.287-0.714c0.266-0.394,0.606-0.631,0.92-0.799
								c0.321-0.166,0.618-0.248,0.878-0.301c0.258-0.053,0.481-0.072,0.659-0.078c0.363-0.01,0.564,0.03,0.579,0.107
								c0.017,0.079-0.159,0.19-0.478,0.331c-0.31,0.147-0.783,0.318-1.21,0.637c-0.209,0.161-0.412,0.368-0.53,0.601
								c-0.119,0.24-0.132,0.453-0.029,0.668c0.05,0.102,0.124,0.186,0.207,0.236c0.043,0.027,0.085,0.042,0.135,0.055
								c0.055,0.013,0.112,0.02,0.178,0.019c0.264,0.004,0.655-0.159,1.131-0.332c0.241-0.084,0.508-0.167,0.814-0.196
								c0.154-0.013,0.313-0.011,0.475,0.01c0.164,0.024,0.329,0.068,0.476,0.139c0.605,0.279,0.97,0.834,1.054,1.407
								c0.087,0.605-0.143,1.108-0.411,1.465c-0.272,0.36-0.6,0.599-0.916,0.767c-0.634,0.319-1.177,0.372-1.538,0.386
								C93.507,246.808,93.305,246.756,93.293,246.679z"/>
						</g>
					</g>
					<g>
						<g>
							<path style="fill:#F5F5F5;" d="M96.225,246.852c-0.141,0.074-1.069-1.42-2.07-3.337c-1.004-1.918-1.703-3.532-1.562-3.605
								c0.141-0.074,1.069,1.42,2.072,3.337C95.67,245.163,96.366,246.778,96.225,246.852z"/>
						</g>
					</g>
					<g>
						<g>
							<path style="fill:#F5F5F5;" d="M95.356,247.084c-0.141,0.075-0.994-1.277-1.903-3.017c-0.911-1.741-1.533-3.212-1.392-3.286
								c0.141-0.074,0.994,1.278,1.902,3.018C94.875,245.539,95.497,247.01,95.356,247.084z"/>
						</g>
					</g>
				</g>
				<g style="opacity:0.5;">
					<path style="fill:#EBEBEB;" d="M83.67,252.92l-4.642-8.621l0.055-0.085c2.539-3.945,9.471-5.34,14.058-6.264
						c0.79-0.159,1.537-0.309,2.174-0.455c4.269-0.976,6.064-5.314,6.005-5.712l0.312-0.135l5.16,9.218l-0.063,0.088
						c-3.842,5.378-9.975,7.678-14.06,8.014c-3.814,0.314-8.791,3.805-8.841,3.841L83.67,252.92z M79.426,244.315l4.363,8.103
						c0.9-0.615,5.288-3.499,8.851-3.792c3.99-0.329,9.969-2.565,13.746-7.784l-4.819-8.608c-0.121,0.363-0.324,0.762-0.384,0.877
						c-0.471,0.904-2.282,3.915-5.792,4.718c-0.642,0.146-1.39,0.297-2.183,0.457C88.712,239.192,81.932,240.556,79.426,244.315z"/>
				</g>
			</g>
		</g>
		<g>
			<g>
				<g>
					<path style="fill:#F5F5F5;" d="M467.544,143.617c0,0-5.167,3.998-12.261,0.592c-4.39-2.11-13.44-4.971-15.526-1.888
						l-1.352,10.678c0,0,6.485,0.026,12.287,3.151c5.702,3.072,15.63,1.089,15.63,1.089L467.544,143.617z"/>
				</g>
				<g>
					<g>
						<path style="fill:#EBEBEB;" d="M451.273,154.719c-3.293-1.212-4.156-4.939-2.805-7.256c1.35-2.317,5.381-2.482,7.697-1.133
							c2.317,1.352,3.099,4.324,1.749,6.641C456.563,155.288,453.79,155.645,451.273,154.719z"/>
					</g>
					<g>
						<g>
							<path style="fill:#F5F5F5;" d="M451.021,152.684c0.036-0.074,0.242-0.049,0.577,0.024c0.334,0.068,0.809,0.19,1.354,0.181
								c0.265-0.006,0.552-0.056,0.81-0.171c0.252-0.11,0.477-0.304,0.554-0.511c0.097-0.219,0.08-0.523-0.05-0.719
								c-0.108-0.187-0.387-0.34-0.813-0.46c-0.21-0.062-0.443-0.119-0.69-0.203c-0.247-0.084-0.517-0.195-0.77-0.386
								c-0.127-0.098-0.243-0.213-0.342-0.343c-0.101-0.132-0.184-0.285-0.235-0.443c-0.106-0.316-0.1-0.643-0.024-0.929
								c0.078-0.288,0.226-0.544,0.425-0.745c0.206-0.205,0.426-0.328,0.65-0.412c0.446-0.165,0.861-0.158,1.213-0.111
								c0.358,0.053,0.646,0.16,0.889,0.268c0.24,0.108,0.432,0.223,0.58,0.322c0.301,0.204,0.44,0.354,0.408,0.425
								c-0.033,0.074-0.24,0.061-0.582-0.01c-0.337-0.062-0.821-0.199-1.354-0.19c-0.264,0.008-0.55,0.058-0.781,0.178
								c-0.236,0.125-0.371,0.291-0.413,0.525c-0.019,0.112-0.008,0.224,0.03,0.313c0.018,0.047,0.044,0.084,0.078,0.124
								c0.037,0.043,0.079,0.081,0.133,0.12c0.212,0.157,0.625,0.253,1.112,0.391c0.245,0.073,0.509,0.161,0.775,0.316
								c0.133,0.079,0.26,0.173,0.38,0.286c0.119,0.115,0.228,0.247,0.306,0.391c0.328,0.58,0.3,1.243,0.034,1.758
								c-0.283,0.542-0.763,0.816-1.189,0.949c-0.431,0.134-0.837,0.136-1.192,0.087c-0.701-0.112-1.173-0.386-1.474-0.585
								C451.119,152.914,450.986,152.754,451.021,152.684z"/>
						</g>
					</g>
					<g>
						<g>
							<path style="fill:#F5F5F5;" d="M453.299,154.537c-0.158-0.022-0.038-1.777,0.269-3.917c0.305-2.143,0.681-3.861,0.838-3.839
								c0.158,0.022,0.038,1.777-0.267,3.919C453.835,152.842,453.457,154.56,453.299,154.537z"/>
						</g>
					</g>
					<g>
						<g>
							<path style="fill:#F5F5F5;" d="M452.458,154.218c-0.158-0.022-0.061-1.617,0.218-3.56c0.278-1.945,0.632-3.503,0.79-3.48
								c0.158,0.022,0.061,1.618-0.219,3.561C452.97,152.683,452.616,154.24,452.458,154.218z"/>
						</g>
					</g>
				</g>
				<g style="opacity:0.5;">
					<path style="fill:#EBEBEB;" d="M439.565,152.129l1.268-9.709l0.094-0.037c4.365-1.719,10.806,1.197,15.07,3.127
						c0.734,0.333,1.428,0.647,2.03,0.9c4.035,1.702,8.026-0.772,8.211-1.129l0.332,0.073l-1.196,10.497l-0.103,0.035
						c-6.259,2.121-12.581,0.406-16.093-1.708c-3.279-1.973-9.358-2.046-9.419-2.046L439.565,152.129z M441.146,142.666
						l-1.191,9.125c1.09,0.027,6.336,0.249,9.399,2.092c3.431,2.064,9.59,3.741,15.704,1.711l1.117-9.802
						c-0.31,0.224-0.708,0.429-0.824,0.488c-0.911,0.459-4.139,1.845-7.457,0.446c-0.606-0.256-1.302-0.571-2.039-0.904
						C451.676,143.931,445.375,141.079,441.146,142.666z"/>
				</g>
			</g>
		</g>
	</g>
</g>
<g id="Background_Simple" style="display:none;">
	<path style="display:inline;fill:#EBEBEB;" d="M353.806,392.922c22.753-8.547,44.825-29.839,58.866-49.679
		c38.231-54.021,48.416-95.965,44.712-149.494c-2.194-31.715-14.935-62.843-38.152-84.561
		c-19.641-18.373-49.357-24.231-75.314-17.189c-25.957,7.042-47.898,25.976-61.148,49.381
		c-10.869,19.199-17.694,42.857-36.905,53.704c-15.946,9.003-35.945,6.195-53.296,0.339c-17.35-5.855-33.997-14.529-52.17-16.771
		c-40.183-4.957-79.878,25.593-91.044,64.51c-11.166,38.917,3.329,82.452,31.284,111.739c16.599,17.389,37.32,30.15,59.809,38.828
		c21.339,8.234,44.033,12.368,66.901,12.822C243.317,407.266,320.683,406.994,353.806,392.922"/>
</g>
<g id="Floor">
	<g>
		<path style="fill:#263238;" d="M476.43,459.825c0,0.144-101.384,0.26-226.419,0.26c-125.078,0-226.441-0.117-226.441-0.26
			s101.363-0.26,226.441-0.26C375.046,459.565,476.43,459.681,476.43,459.825z"/>
	</g>
</g>
<g id="Character">
	<g>
		<g>
			<path style="fill:#263238;" d="M227.195,240.351c-1.417-3.335-2.842-6.697-3.577-10.245c-0.735-3.548-0.741-7.338,0.631-10.692
				c1.372-3.354,4.274-6.194,7.828-6.896c2.195-0.433,4.539-0.064,6.639-0.838c2.429-0.896,4.055-3.127,5.946-4.896
				c2.953-2.763,6.824-4.528,10.847-4.945c2.112-0.219,4.322-0.059,6.217,0.898c1.895,0.956,3.419,2.814,3.573,4.931
				c2.477-0.831,4.989-1.669,7.597-1.83c2.608-0.16,5.367,0.434,7.322,2.168c1.955,1.734,2.868,4.754,1.693,7.087
				c2.134-1.233,5.129-0.275,6.438,1.814c1.309,2.089,1.014,4.952-0.412,6.962c-1.426,2.01-4.74,3.802-7.182,4.135
				c-2.442,0.333-5.283,0.57-7.618-0.216"/>
			<g>
				<g>
					<g>
						<g>
							<g>
								<g>
									<g>
										<g>
											<g>
												<path style="fill:#B78876;" d="M233.162,310.795L268.17,308c0.218-4.087-0.075-19.9-0.075-19.9
													s14.566-2.265,14.746-16.828c0.18-14.563-2.345-48.004-2.345-48.004l0,0c-16.858-7.245-36.317-4.799-50.858,6.393
													l-2.158,1.661L233.162,310.795z"/>
											</g>
										</g>
									</g>
								</g>
								<g>
									<g>
										<g>
											<g>
												<path style="fill:#AA6550;" d="M268.12,287.889c0,0-9.204,0.749-18.986-5.396c0,0,4.488,10.481,19.02,9.169
													L268.12,287.889z"/>
											</g>
										</g>
									</g>
								</g>
							</g>
						</g>
					</g>
					<g>
						<g>
							<g>
								<g>
									<g>
										<path style="fill:#B78876;" d="M229.275,246.406c-0.248-0.107-10.006-2.96-9.688,6.997
											c0.318,9.956,10.248,7.583,10.257,7.297C229.851,260.414,229.275,246.406,229.275,246.406z"/>
									</g>
								</g>
							</g>
						</g>
						<g>
							<g>
								<g>
									<g>
										<g>
											<path style="fill:#AA6550;" d="M226.681,257.026c-0.045-0.031-0.17,0.127-0.458,0.271
												c-0.282,0.14-0.77,0.246-1.296,0.068c-1.064-0.352-2.003-1.994-2.109-3.787c-0.055-0.905,0.108-1.774,0.406-2.499
												c0.281-0.738,0.736-1.262,1.262-1.373c0.523-0.139,0.908,0.166,1.039,0.443c0.142,0.274,0.085,0.475,0.139,0.49
												c0.029,0.024,0.208-0.173,0.115-0.582c-0.048-0.196-0.172-0.428-0.412-0.611c-0.245-0.187-0.6-0.275-0.967-0.223
												c-0.766,0.078-1.434,0.806-1.762,1.602c-0.37,0.8-0.574,1.778-0.513,2.794c0.128,2.004,1.215,3.849,2.667,4.219
												c0.706,0.16,1.284-0.069,1.578-0.314C226.671,257.267,226.716,257.042,226.681,257.026z"/>
										</g>
									</g>
								</g>
							</g>
						</g>
					</g>
					<g>
						<g>
							<g>
								<g>
									<g>
										<g>
											<g>
												<g>
													<g>
														<g>
															<path style="fill:#263238;" d="M275.721,245.837c0.039,1.098-0.859,2.036-2.005,2.098
																c-1.144,0.061-2.105-0.777-2.144-1.875c-0.039-1.098,0.859-2.038,2.003-2.1
																C274.722,243.898,275.683,244.738,275.721,245.837z"/>
														</g>
													</g>
												</g>
											</g>
											<g>
												<g>
													<g>
														<g>
															<g>
																<path style="fill:#263238;" d="M277.74,243.754c-0.258,0.271-1.833-0.895-4.072-0.889
																	c-2.236-0.026-3.878,1.125-4.121,0.851c-0.119-0.121,0.143-0.611,0.859-1.132c0.704-0.519,1.905-1.023,3.299-1.017
																	c1.394,0.008,2.567,0.521,3.241,1.046C277.634,243.142,277.867,243.633,277.74,243.754z"/>
															</g>
														</g>
													</g>
												</g>
											</g>
										</g>
										<g>
											<g>
												<g>
													<g>
														<g>
															<path style="fill:#263238;" d="M253.722,245.837c0.039,1.098-0.859,2.036-2.005,2.098
																c-1.144,0.061-2.105-0.777-2.144-1.875c-0.039-1.098,0.859-2.038,2.004-2.1
																C252.723,243.898,253.684,244.738,253.722,245.837z"/>
														</g>
													</g>
												</g>
											</g>
											<g>
												<g>
													<g>
														<g>
															<g>
																<path style="fill:#263238;" d="M255.742,244.171c-0.258,0.271-1.836-0.895-4.072-0.889
																	c-2.235-0.026-3.878,1.125-4.121,0.851c-0.119-0.121,0.141-0.611,0.859-1.131c0.704-0.519,1.904-1.023,3.298-1.017
																	c1.394,0.008,2.567,0.521,3.241,1.046C255.634,243.56,255.868,244.05,255.742,244.171z"/>
															</g>
														</g>
													</g>
												</g>
											</g>
										</g>
										<g>
											<g>
												<g>
													<g>
														<g>
															<path style="fill:#263238;" d="M263.864,260.769c-0.01-0.127,1.381-0.367,3.635-0.656
																c0.571-0.059,1.112-0.173,1.209-0.563c0.135-0.413-0.104-1.029-0.382-1.694c-0.537-1.383-1.1-2.832-1.69-4.352
																c-2.347-6.196-4.046-11.29-3.796-11.383c0.25-0.092,2.356,4.855,4.703,11.05c0.565,1.528,1.105,2.984,1.619,4.378
																c0.216,0.649,0.588,1.386,0.296,2.243c-0.154,0.427-0.573,0.737-0.94,0.835c-0.366,0.112-0.688,0.118-0.97,0.135
																C265.28,260.886,263.872,260.896,263.864,260.769z"/>
														</g>
													</g>
												</g>
											</g>
										</g>
										<g>
											<g>
												<g>
													<g>
														<g>
															<path style="fill:#263238;" d="M257.278,262.317c0.364-0.021,0.369,2.408,2.448,4.132
																c2.076,1.73,4.665,1.457,4.684,1.797c0.034,0.152-0.577,0.472-1.669,0.501c-1.072,0.037-2.638-0.307-3.91-1.362
																c-1.269-1.057-1.814-2.468-1.897-3.465C256.84,262.905,257.111,262.303,257.278,262.317z"/>
														</g>
													</g>
												</g>
											</g>
										</g>
									</g>
								</g>
							</g>
							<g>
								<g>
									<g>
										<g>
											<path style="fill:#263238;" d="M276.917,239.815c-0.394,0.508-1.935-0.019-3.789-0.044
												c-1.853-0.09-3.424,0.342-3.785-0.19c-0.158-0.258,0.089-0.767,0.775-1.248c0.676-0.48,1.806-0.871,3.08-0.833
												c1.274,0.041,2.378,0.501,3.023,1.022C276.876,239.044,277.091,239.567,276.917,239.815z"/>
										</g>
									</g>
								</g>
							</g>
						</g>
					</g>
				</g>
			</g>
			<g>
				<path style="fill:#263238;" d="M252.831,236.081c-0.251,0.273-0.825,0.163-1.569,0.017c-0.748-0.154-1.698-0.328-2.763-0.368
					c-1.066-0.029-2.025,0.082-2.782,0.187c-0.752,0.097-1.332,0.17-1.564-0.119c-0.218-0.264-0.003-0.905,0.777-1.545
					c0.765-0.637,2.121-1.175,3.655-1.125c1.534,0.051,2.852,0.676,3.573,1.362C252.893,235.179,253.066,235.832,252.831,236.081z"
					/>
			</g>
			<path style="fill:#263238;" d="M281.219,227.74c0,0-9.748,3.278-21.244-1.079c-7.544-2.859-16.093-3.765-17.793-2.135
				c-1.7,1.631-1.342,9.07-8.238,11.949c0,0,1.915,14.07-3.766,14.135c-5.68,0.065-4.371-22.159-4.371-22.159l13.093-8.117
				l14.742-4.357l14.08-1.422l13.497,2.701V227.74z"/>
		</g>
		<g>
			<g>
				<g>
					<g>
						<path style="fill:#B78876;" d="M318.834,344.274c0,0,25.361,26.105,34.298,22.23c24.312-10.541,44.066-32.74,50.859-40.715
							c0.289-1.495,0.582-3.263,0.831-5.362c0.216-1.803,0.103-3.637-0.297-5.422c-0.486-2.165-1.249-5.02-2.145-6.464
							c-1.108-1.786,0.489-3.944,2.242-3.21c1.753,0.738,6.004,5.457,6.891,12.124c0,0,0.75,2.724,3.778,1.727
							c4.402-1.449,19.35-7.255,22.012-7.872c2.371-0.549,5.2-0.413,3.622,1.318c-1.578,1.731-12.609,8.18-12.609,8.18
							s14.289-8.74,15.466-6.599c0.812,1.477-2.2,4.885-12.224,9.724c0,0,11.826-7.111,13.838-6.878
							c4.545,0.526-9.601,9.222-9.601,9.222c9.963-6.005,9.495-6.404,10.574-5.241c0.809,0.871-0.936,2.866-5.848,6.869
							c-3.985,3.247-7.463,7.406-13.262,12.68l0,0c0,0-60.019,83.445-97.755,57.833c-20.342-13.806-25.933-20.769-37.487-31.232"/>
					</g>
				</g>
			</g>
			<g>
				<g>
					<g>
						<path style="fill:#AA6550;" d="M429.881,330.03c0.145,0.254,3.279-1.462,6.998-3.833c3.72-2.371,6.598-4.486,6.43-4.725
							c-0.169-0.238-3.302,1.477-6.999,3.833C432.615,327.661,429.736,329.777,429.881,330.03z"/>
					</g>
				</g>
			</g>
			<g>
				<g>
					<g>
						<path style="fill:#AA6550;" d="M427.172,326.446c0.142,0.255,3.583-1.385,7.685-3.663c4.104-2.279,7.314-4.333,7.172-4.589
							c-0.142-0.255-3.582,1.385-7.686,3.664C430.241,324.136,427.03,326.191,427.172,326.446z"/>
					</g>
				</g>
			</g>
			<g>
				<g>
					<g>
						<path style="fill:#AA6550;" d="M424.379,322.711c0.138,0.257,3.421-1.241,7.331-3.345c3.911-2.105,6.968-4.02,6.83-4.277
							c-0.138-0.257-3.42,1.24-7.331,3.345C427.298,320.539,424.24,322.454,424.379,322.711z"/>
					</g>
				</g>
			</g>
		</g>
		<g>
			<path style="fill:#B78876;" d="M168.695,364.982c0,0-12.781,34.078-22.521,34.107c-26.499,0.08-53.491-12.347-62.909-16.933
				c-0.864-1.254-1.84-2.756-2.91-4.58c-0.92-1.566-1.551-3.292-1.9-5.087c-0.422-2.179-0.866-5.1-0.624-6.782
				c0.3-2.081-2.028-3.418-3.341-2.043c-1.31,1.379-3.316,7.405-1.457,13.869c0,0,0.404,2.796-2.77,3.095
				c-4.614,0.435-20.635,1.104-23.322,1.605c-2.393,0.446-4.93,1.704-2.791,2.658c1.555,0.693,8.681,1.67,12.459,2.152
				c-4.591-0.526-14.275-1.414-14.444,0.441c-0.098,1.083,1.6,2.264,5.798,3.079c-2.858-0.192-5.441-0.229-6.136,0.176
				c-3.954,2.302,12.491,4.604,12.491,4.604c-11.534-1.512-11.265-2.064-11.788-0.567c-0.392,1.122,2.005,2.252,8.11,3.952
				c4.952,1.379,9.805,3.797,17.23,6.306c0,0,88.418,52.416,112.736,13.833c13.109-20.799,15.443-29.418,21.838-43.633
				L168.695,364.982z"/>
			<g>
				<g>
					<g>
						<path style="fill:#AA6550;" d="M61.24,396.413c-0.031,0.29-3.59-0.026-7.947-0.708c-4.358-0.682-7.843-1.468-7.784-1.754
							c0.059-0.286,3.617,0.031,7.948,0.709C57.786,395.337,61.271,396.123,61.24,396.413z"/>
					</g>
				</g>
			</g>
			<g>
				<g>
					<g>
						<path style="fill:#AA6550;" d="M62.287,392.044c-0.028,0.291-3.838,0.166-8.509-0.278c-4.673-0.445-8.438-1.041-8.41-1.332
							c0.028-0.291,3.837-0.166,8.51,0.278C58.549,391.157,62.315,391.753,62.287,392.044z"/>
					</g>
				</g>
			</g>
			<g>
				<g>
					<g>
						<path style="fill:#AA6550;" d="M63.35,387.503c-0.024,0.291-3.631,0.234-8.057-0.128c-4.427-0.362-7.995-0.892-7.971-1.183
							c0.024-0.291,3.631-0.234,8.058,0.128C59.805,386.682,63.374,387.211,63.35,387.503z"/>
					</g>
				</g>
			</g>
		</g>
		<g>
			<g>
				<g>
					<path style="fill:#E8505B;" d="M348.745,366.578L306.917,319.9c-11.645-11.447-17.864-14.869-34.08-16.785
						c-2.649-0.313-4.752-0.512-6.268-0.702c-12.443,3.831-24.885,3.823-37.327-0.023v0c-5.769,0.245-10.548,2.021-15.455,2.961
						c-15.454,2.961-26.577,14.217-29.667,24.611c0,0,0,0.001,0,0.001l-34.865,68.109l29.442,24.747l26.902-42.694l1.637,45.449
						l-1.668,33.957l103.256,0.298l-4.696-79.728l27.789,22.62L348.745,366.578z"/>
				</g>
				<g>
					<g>
						<path style="fill:#263238;" d="M206.066,351.571c0.051,0,0.096,0.54,0.136,1.515c0.039,0.975,0.072,2.386,0.097,4.13
							c0.05,3.487,0.068,8.304,0.044,13.623c-0.025,5.322-0.088,10.138-0.171,13.625c-0.041,1.743-0.087,3.154-0.136,4.128
							c-0.048,0.975-0.099,1.513-0.15,1.513c-0.051,0-0.096-0.54-0.136-1.515c-0.039-0.975-0.072-2.386-0.097-4.13
							c-0.05-3.487-0.069-8.304-0.044-13.625c0.025-5.32,0.088-10.136,0.171-13.622c0.041-1.743,0.087-3.154,0.136-4.129
							C205.965,352.109,206.015,351.57,206.066,351.571z"/>
					</g>
				</g>
				<g>
					<g>
						<path style="fill:#263238;" d="M305.884,410.039c-0.05,0.004-0.158-0.83-0.309-2.341c-0.146-1.637-0.338-3.794-0.571-6.403
							c-0.45-5.409-1.021-12.884-1.607-21.143c-0.586-8.262-1.075-15.744-1.393-21.162c-0.138-2.615-0.252-4.778-0.338-6.419
							c-0.063-1.517-0.075-2.357-0.024-2.361c0.051-0.004,0.158,0.83,0.309,2.34c0.146,1.637,0.338,3.794,0.571,6.402
							c0.45,5.409,1.021,12.884,1.607,21.147c0.586,8.259,1.075,15.74,1.393,21.158c0.138,2.615,0.252,4.778,0.338,6.419
							C305.923,409.194,305.935,410.035,305.884,410.039z"/>
					</g>
				</g>
			</g>
			<g style="opacity:0.3;">
				<path style="fill:#EBEBEB;" d="M321.192,335.606c0,0.144-31.337,0.26-69.984,0.26c-38.661,0-69.991-0.117-69.991-0.26
					s31.33-0.26,69.991-0.26C289.855,335.345,321.192,335.462,321.192,335.606z"/>
			</g>
			<g style="opacity:0.3;">
				<path style="fill:#EBEBEB;" d="M332.022,377.092c0,0.144-38.177,0.26-85.261,0.26c-47.1,0-85.269-0.117-85.269-0.26
					s38.169-0.26,85.269-0.26C293.844,376.832,332.022,376.948,332.022,377.092z"/>
			</g>
			<g style="opacity:0.3;">
				<path style="fill:#EBEBEB;" d="M306.72,424.393c0,0.144-22.173,0.26-49.519,0.26c-27.355,0-49.524-0.117-49.524-0.26
					s22.168-0.26,49.524-0.26C284.547,424.132,306.72,424.249,306.72,424.393z"/>
			</g>
			<g style="opacity:0.3;">
				<path style="fill:#EBEBEB;" d="M218.763,459.825c-0.144,0-0.26-34.84-0.26-77.808c0-42.983,0.117-77.815,0.26-77.815
					c0.144,0,0.26,34.833,0.26,77.815C219.023,424.985,218.907,459.825,218.763,459.825z"/>
			</g>
			<g style="opacity:0.3;">
				<path style="fill:#EBEBEB;" d="M278.604,459.828c-0.009,0-0.018-0.136-0.027-0.403c-0.007-0.291-0.016-0.683-0.027-1.182
					c-0.013-1.068-0.031-2.594-0.054-4.547c-0.031-3.977-0.076-9.682-0.131-16.721c-0.127-14.143-0.302-33.635-0.496-55.165
					c-0.204-21.549-0.332-41.057-0.343-55.178c0.015-7.039,0.026-12.745,0.035-16.721c0.019-1.952,0.034-3.478,0.044-4.546
					c0.01-0.5,0.019-0.891,0.025-1.182c0.008-0.266,0.017-0.403,0.026-0.403c0.009,0,0.018,0.137,0.027,0.403
					c0.007,0.291,0.016,0.683,0.027,1.182c0.013,1.068,0.031,2.594,0.054,4.546c0.031,3.976,0.076,9.681,0.131,16.72
					c0.127,14.143,0.302,33.637,0.496,55.174c0.204,21.542,0.332,41.048,0.343,55.168c-0.015,7.039-0.026,12.746-0.035,16.723
					c-0.019,1.952-0.034,3.479-0.044,4.547c-0.01,0.5-0.018,0.891-0.025,1.182C278.622,459.692,278.613,459.828,278.604,459.828z"/>
			</g>
			<g style="opacity:0.3;">
				<path style="fill:#EBEBEB;" d="M320.933,393.324c-0.144,0-0.26-12.601-0.26-28.142c0-15.546,0.117-28.145,0.26-28.145
					c0.144,0,0.26,12.599,0.26,28.145C321.194,380.722,321.077,393.324,320.933,393.324z"/>
			</g>
			<g style="opacity:0.3;">
				<path style="fill:#EBEBEB;" d="M171.916,404.852c-0.144,0-0.26-11.886-0.26-26.545c0-14.664,0.117-26.548,0.26-26.548
					c0.144,0,0.26,11.884,0.26,26.548C172.176,392.966,172.06,404.852,171.916,404.852z"/>
			</g>
			<polyline style="fill:#E8505B;" points="225.383,303.78 231.083,291.804 249.746,304.958 268.167,292.583 274.65,303.103 
				256.195,315.098 243.849,315.098 225.383,305.171 			"/>
			<g>
				<path style="fill:#263238;" d="M249.746,304.958c0.001,0.017-0.12,0.052-0.347,0.102c-0.221,0.074-0.577,0.056-0.968,0.267
					c-0.83,0.269-1.894,1.047-2.786,2.356c-0.912,1.296-1.707,3.035-2.566,4.992c-0.437,0.977-0.88,2.017-1.437,3.063
					c-0.56,1.037-1.187,2.127-2.152,3.018l-0.185,0.17l-0.176-0.183c-0.338-0.351-0.698-0.726-1.061-1.104
					c-3.7-3.874-6.846-7.569-9.039-10.307c-1.097-1.369-1.96-2.496-2.543-3.285c-0.581-0.79-0.886-1.24-0.858-1.261
					c0.029-0.022,0.388,0.385,1.017,1.136c0.691,0.822,1.588,1.891,2.668,3.176c2.262,2.673,5.442,6.318,9.132,10.182
					c0.362,0.378,0.721,0.752,1.057,1.102l-0.36-0.012c0.885-0.811,1.504-1.858,2.057-2.868c0.552-1.018,1.005-2.048,1.454-3.018
					c0.886-1.946,1.727-3.7,2.706-5.009c0.957-1.324,2.123-2.109,3.008-2.33c0.42-0.188,0.791-0.14,1.021-0.183
					C249.624,304.942,249.746,304.941,249.746,304.958z"/>
			</g>
			<g>
				<path style="fill:#263238;" d="M274.322,303.333c0.027,0.023-0.297,0.452-0.914,1.201c-0.624,0.743-1.548,1.803-2.751,3.056
					c-2.404,2.504-5.954,5.771-10.289,8.835c-0.811,0.574-1.619,1.12-2.398,1.631l-0.358,0.235l-0.04-0.437
					c-0.203-2.238-0.842-4.339-1.517-6.144c-0.701-1.806-1.555-3.326-2.474-4.423c-0.92-1.092-1.893-1.761-2.648-1.997
					c-0.742-0.25-1.194-0.276-1.187-0.331c0.001-0.016,0.11-0.015,0.322,0.002c0.206,0.04,0.541-0.001,0.922,0.154
					c0.804,0.19,1.86,0.848,2.847,1.95c0.987,1.107,1.897,2.649,2.639,4.479c0.716,1.841,1.384,3.928,1.609,6.286l-0.398-0.202
					c0.771-0.51,1.573-1.054,2.378-1.624c4.306-3.044,7.869-6.243,10.329-8.669c1.231-1.214,2.193-2.232,2.862-2.932
					C273.918,303.693,274.294,303.309,274.322,303.333z"/>
			</g>
			<g>
				<path style="fill:#263238;" d="M256.855,459.828c-0.009,0-0.018-0.135-0.027-0.398c-0.007-0.288-0.016-0.675-0.028-1.169
					c-0.013-1.056-0.033-2.564-0.057-4.493c-0.047-3.93-0.115-9.569-0.198-16.524c-0.204-13.952-0.65-33.224-1.623-54.49
					c-0.982-21.273-2.307-40.507-3.383-54.418c-0.555-6.934-1.005-12.554-1.319-16.472c-0.152-1.923-0.272-3.426-0.355-4.479
					c-0.034-0.492-0.06-0.878-0.079-1.166c-0.015-0.263-0.018-0.398-0.009-0.399c0.009-0.001,0.03,0.133,0.062,0.394
					c0.032,0.287,0.076,0.671,0.131,1.161c0.106,1.051,0.258,2.551,0.453,4.47c0.388,3.883,0.898,9.507,1.484,16.46
					c1.171,13.907,2.554,33.143,3.536,54.424c0.974,21.274,1.361,40.554,1.471,54.51c0.054,6.978,0.062,12.625,0.032,16.528
					c-0.017,1.929-0.031,3.438-0.041,4.494c-0.01,0.493-0.018,0.88-0.024,1.169C256.872,459.694,256.864,459.828,256.855,459.828z"
					/>
			</g>
			<g style="opacity:0.2;">
				<path d="M249.314,305.038c2.262,1.289,3.108,4.163,3.115,6.767c0.007,2.603-0.613,5.197-0.388,7.79
					c0.118,1.359,0.566,2.833,1.735,3.537c1.582,0.953,3.593,0.061,5.212-0.828c3.484-1.914,7.015-3.863,9.854-6.645
					c2.839-2.782,4.089-6.672,4-10.646c-4.8,5.15-9.641,8.253-14.891,12.318c-0.376-2.697-1.28-5.433-2.643-7.791
					S252.021,304.739,249.314,305.038"/>
			</g>
			<g style="opacity:0.2;">
				<path d="M232.165,310.919c1.77,3.467,3.629,7.044,6.675,9.468c1.351,1.075,3.33,1.88,4.737,0.879
					c1.13-0.804,1.324-2.377,1.418-3.761c0.238-3.525,1.28-7.577,1.518-11.102c-2.789,3.147-4.319,8.696-7.266,12.51
					c-2.994-1.891-4.727-5.12-6.885-7.928"/>
			</g>
			<g style="opacity:0.2;">
				<path d="M322.992,394.986c4.643-8.634,9.287-17.269,13.93-25.904c-4.126,0.406-6.895,4.299-9.025,7.856
					c-2.131,3.556-4.7,7.516-8.785,8.22c-2.842,0.49-5.682-0.781-8.159-2.259c-2.477-1.477-4.883-3.228-7.698-3.853L322.992,394.986
					z"/>
			</g>
			<g style="opacity:0.2;">
				<path d="M200.629,388.012c0,0-9.699,10.206-16.243,11.707c-6.543,1.501-13.711,0.016-19.12-3.96
					c-0.445-0.327-0.904-0.681-1.449-0.764c-0.546-0.083-1.196,0.227-1.268,0.775c-0.063,0.485,0.325,0.899,0.683,1.231
					c6.682,6.206,13.636,12.119,20.835,17.717L200.629,388.012z"/>
			</g>
			<g>
				<g style="opacity:0.2;">
					<path d="M246.308,318.399c-3.681,29.39-6.085,58.939-7.203,88.537c-0.175,4.629-0.296,9.403,1.352,13.733
						c1.92,5.043,6.007,8.897,9.965,12.564c1.685,1.562,3.982,3.237,6.064,2.263c0.811-0.379,1.398-1.104,1.946-1.813
						c2.495-3.226,4.842-6.708,5.766-10.68c2.898-12.462-8.856-24.793-6.206-37.31"/>
				</g>
				<g>
					<path style="fill:#455A64;" d="M245.36,308.165l8.832-0.221c0.733,1.476,1.664,3.35,2.359,4.75l-2.829,7.937h-7.21
						l-3.821-7.111L245.36,308.165z"/>
					<polygon style="fill:#455A64;" points="246.513,320.631 242.377,421.685 254.382,434.739 265.47,418.978 253.722,320.631 					
						"/>
					<g>
						<path style="fill:#263238;" d="M253.297,320.769c-0.023,0.147-1.508,0.029-3.336,0.001c-1.828-0.034-3.316,0.034-3.334-0.114
							c-0.019-0.137,1.474-0.442,3.343-0.407C251.839,320.278,253.32,320.633,253.297,320.769z"/>
					</g>
					<g>
						<path style="fill:#263238;" d="M255.201,309.649c0.051,0.042-0.351,0.645-1.119,1.528c-0.766,0.883-1.916,2.03-3.317,3.141
							c-1.404,1.109-2.784,1.964-3.819,2.507c-1.036,0.545-1.715,0.798-1.744,0.738c-0.073-0.142,2.485-1.459,5.241-3.654
							C253.21,311.733,255.08,309.545,255.201,309.649z"/>
					</g>
					<g>
						<path style="fill:#263238;" d="M254.813,330.495c0.101,0.102-1.832,2.182-4.316,4.644c-2.486,2.463-4.582,4.377-4.683,4.275
							c-0.101-0.102,1.831-2.181,4.317-4.644C252.615,332.307,254.712,330.393,254.813,330.495z"/>
					</g>
					<g>
						<path style="fill:#EBEBEB;" d="M255.416,337.779c0.101,0.102-2.058,2.406-4.822,5.145c-2.765,2.74-5.088,4.878-5.189,4.775
							c-0.101-0.102,2.058-2.405,4.822-5.145C252.991,339.815,255.315,337.677,255.416,337.779z"/>
					</g>
					<g>
						<path style="fill:#263238;" d="M256.56,344.496c0.101,0.102-2.413,2.764-5.615,5.945c-3.203,3.182-5.881,5.678-5.982,5.576
							c-0.101-0.102,2.412-2.763,5.615-5.946C253.78,346.89,256.458,344.394,256.56,344.496z"/>
					</g>
					<g>
						<path style="fill:#EBEBEB;" d="M257.347,351.582c0.101,0.102-2.642,2.992-6.126,6.454c-3.486,3.463-6.393,6.187-6.494,6.085
							c-0.101-0.102,2.641-2.991,6.127-6.455C254.338,354.204,257.246,351.48,257.347,351.582z"/>
					</g>
					<g>
						<path style="fill:#263238;" d="M258.096,358.707c0.101,0.102-2.861,3.211-6.617,6.944c-3.757,3.734-6.883,6.678-6.985,6.576
							c-0.101-0.102,2.861-3.211,6.618-6.945C254.867,361.549,257.995,358.604,258.096,358.707z"/>
					</g>
					<g>
						<path style="fill:#EBEBEB;" d="M258.995,365.681c0.102,0.102-3.162,3.512-7.289,7.617c-4.128,4.106-7.555,7.35-7.657,7.248
							c-0.101-0.102,3.162-3.512,7.29-7.617C255.465,368.824,258.894,365.579,258.995,365.681z"/>
					</g>
					<g>
						<path style="fill:#263238;" d="M259.746,372.801c0.102,0.102-3.403,3.753-7.826,8.155c-4.425,4.403-8.093,7.888-8.194,7.786
							c-0.101-0.102,3.402-3.753,7.827-8.155C255.976,376.185,259.645,372.699,259.746,372.801z"/>
					</g>
					<g>
						<path style="fill:#EBEBEB;" d="M260.625,379.797c0.102,0.102-3.643,3.993-8.363,8.691c-4.721,4.699-8.63,8.424-8.731,8.322
							c-0.101-0.102,3.643-3.992,8.364-8.691C256.615,383.422,260.524,379.696,260.625,379.797z"/>
					</g>
					<g>
						<path style="fill:#263238;" d="M261.178,387.118c0.101,0.102-3.878,4.228-8.888,9.216c-5.011,4.989-9.155,8.949-9.256,8.847
							c-0.101-0.102,3.878-4.228,8.889-9.216C256.932,390.978,261.077,387.017,261.178,387.118z"/>
					</g>
					<g>
						<path style="fill:#EBEBEB;" d="M262.153,394.017c0.101,0.102-4.102,4.452-9.386,9.714c-5.287,5.264-9.653,9.448-9.755,9.346
							c-0.101-0.102,4.101-4.451,9.387-9.715C257.684,398.1,262.051,393.915,262.153,394.017z"/>
					</g>
					<g>
						<path style="fill:#263238;" d="M263.679,400.364c0.102,0.102-4.596,4.947-10.492,10.819
							c-5.897,5.875-10.759,10.553-10.86,10.451c-0.101-0.102,4.595-4.945,10.493-10.82
							C258.715,404.942,263.578,400.263,263.679,400.364z"/>
					</g>
					<g>
						<path style="fill:#EBEBEB;" d="M246.14,425.777c-0.102-0.102,3.874-4.26,8.878-9.287c5.007-5.029,9.146-9.022,9.248-8.921
							c0.102,0.102-3.873,4.259-8.879,9.288C250.382,421.885,246.242,425.879,246.14,425.777z"/>
					</g>
					<g>
						<path style="fill:#263238;" d="M250.734,430.383c-0.104-0.099,3.014-3.542,6.963-7.69c3.951-4.149,7.237-7.431,7.341-7.331
							c0.104,0.099-3.013,3.542-6.964,7.69C254.125,427.199,250.838,430.482,250.734,430.383z"/>
					</g>
					<g>
						<path style="fill:#EBEBEB;" d="M253.923,323.727c0.101,0.102-1.611,1.963-3.824,4.156c-2.214,2.194-4.09,3.889-4.191,3.787
							c-0.101-0.102,1.611-1.963,3.825-4.157C251.946,325.32,253.822,323.625,253.923,323.727z"/>
					</g>
				</g>
			</g>
			<g>
				<path style="fill:#E8505B;" d="M150.122,397.914c-1.465-0.136-2.017-2.115-1.538-3.507c0.479-1.392,1.563-2.512,2.037-3.906
					c0.27-0.796,0.388-1.744,1.081-2.22c0.716-0.492,1.833-0.458,2.493,0.106c4.073,3.484,7.073,6.876,11.513,10.639
					c4.278,3.625,8.894,8.277,13.406,11.606c2.545,1.877,5.655,3.818,5.997,6.962c0.283,2.6-1.901,5.208-4.51,5.385
					c-2.578,0.175-4.809-1.654-6.738-3.374c-8.057-7.183-16.114-14.366-24.171-21.549"/>
				<g>
					<path style="fill:#263238;" d="M183.459,414.251c-0.026,0.03-0.454-0.305-1.238-0.895c-0.783-0.591-1.935-1.419-3.368-2.438
						c-1.423-1.024-3.147-2.25-4.858-3.834c-1.725-1.573-3.609-3.292-5.587-5.095c-3.955-3.627-7.516-6.931-10.075-9.341
						c-1.219-1.163-2.232-2.13-3.012-2.874c-0.703-0.687-1.08-1.079-1.055-1.105c0.025-0.026,0.449,0.316,1.195,0.958
						c0.809,0.713,1.859,1.638,3.124,2.752c2.622,2.34,6.219,5.599,10.172,9.223c1.967,1.813,3.841,3.541,5.556,5.122
						c1.685,1.595,3.36,2.832,4.758,3.897c1.404,1.056,2.529,1.934,3.276,2.576C183.096,413.839,183.481,414.226,183.459,414.251z"
						/>
				</g>
				<g>
					<path style="fill:#263238;" d="M180.796,416.582c-0.02,0.03-0.479-0.235-1.294-0.741c-0.816-0.503-1.978-1.26-3.397-2.221
						c-2.839-1.919-6.684-4.69-10.769-7.958c-4.084-3.272-7.628-6.419-10.122-8.769c-1.248-1.175-2.241-2.143-2.91-2.829
						c-0.671-0.684-1.03-1.074-1.005-1.1c0.025-0.026,0.432,0.315,1.145,0.953c0.784,0.703,1.799,1.612,3.018,2.704
						c2.553,2.277,6.126,5.371,10.199,8.634c4.074,3.26,7.874,6.069,10.654,8.062c1.333,0.951,2.441,1.743,3.299,2.354
						C180.394,416.229,180.816,416.552,180.796,416.582z"/>
				</g>
				<g style="opacity:0.3;">
					<path style="fill:#EBEBEB;" d="M162.987,396.733c0.102,0.102-1.327,1.692-3.19,3.552c-1.864,1.86-3.456,3.286-3.558,3.184
						c-0.102-0.102,1.326-1.692,3.19-3.552C161.293,398.056,162.886,396.631,162.987,396.733z"/>
				</g>
				<g style="opacity:0.3;">
					<path style="fill:#EBEBEB;" d="M178.67,410.773c0.1,0.104-1.445,1.751-3.451,3.679c-2.006,1.929-3.712,3.408-3.812,3.304
						c-0.1-0.104,1.445-1.751,3.451-3.679C176.864,412.149,178.57,410.669,178.67,410.773z"/>
				</g>
			</g>
			<g style="opacity:0.5;">
				<path style="fill:#EBEBEB;" d="M238.326,297.447c0.121,0.078-1.402,2.659-3.402,5.764c-2,3.106-3.719,5.56-3.84,5.482
					c-0.121-0.078,1.402-2.658,3.402-5.764C236.486,299.824,238.205,297.37,238.326,297.447z"/>
			</g>
			<g style="opacity:0.5;">
				<path style="fill:#EBEBEB;" d="M268.014,309.06c-0.131,0.06-1.478-2.586-3.01-5.909c-1.532-3.325-2.668-6.068-2.537-6.128
					c0.131-0.06,1.478,2.585,3.01,5.91C267.009,306.256,268.145,309,268.014,309.06z"/>
			</g>
			<g>
				<path style="fill:#E8505B;" d="M333.246,400.4c-0.67,1.344-1.848,2.05-3.311,1.893c-1.463-0.158-2.797-0.966-4.261-1.117
					c-0.836-0.086-1.787,0.009-2.404-0.56c-0.639-0.589-0.595-1.598-0.451-2.455c0.929-5.53,3.931-10.477,7.152-15.067
					c3.221-4.59,6.754-9.035,8.995-14.175c1.265-2.899,2.465-6.362,5.454-7.395c2.472-0.854,5.5,0.695,6.253,3.2
					c0.744,2.474-0.544,5.057-1.791,7.319C343.669,381.495,338.457,390.947,333.246,400.4"/>
				<g>
					<path style="fill:#263238;" d="M343.249,366.685c0.033,0.014-0.135,0.512-0.468,1.402c-0.331,0.891-0.836,2.17-1.481,3.742
						c-1.288,3.145-3.157,7.453-5.374,12.14c-2.22,4.688-4.367,8.866-5.982,11.855c-0.807,1.495-1.476,2.696-1.955,3.517
						c-0.477,0.822-0.756,1.268-0.788,1.251c-0.032-0.017,0.187-0.496,0.609-1.347c0.47-0.935,1.077-2.142,1.807-3.592
						c1.53-3.03,3.621-7.227,5.838-11.908c2.214-4.68,4.134-8.958,5.507-12.062c0.659-1.484,1.207-2.719,1.632-3.675
						C342.984,367.144,343.215,366.671,343.249,366.685z"/>
				</g>
				<g>
					<path style="fill:#263238;" d="M341.565,361.144c0.03,0.02-0.239,0.497-0.751,1.343c-0.562,0.926-1.292,2.129-2.172,3.578
						c-1.829,3.023-4.305,7.229-6.882,11.962c-2.575,4.736-4.764,9.099-6.309,12.277c-0.739,1.525-1.353,2.792-1.825,3.767
						c-0.433,0.889-0.688,1.374-0.72,1.359c-0.033-0.015,0.159-0.527,0.536-1.443c0.374-0.916,0.945-2.229,1.677-3.84
						c1.462-3.223,3.603-7.622,6.185-12.369c2.583-4.743,5.115-8.93,7.027-11.908c0.955-1.489,1.747-2.682,2.314-3.494
						C341.209,361.564,341.535,361.124,341.565,361.144z"/>
				</g>
				<g style="opacity:0.5;">
					<path style="fill:#EBEBEB;" d="M336.728,393.305c-0.03,0.13-2.544-0.398-5.422-1.691c-2.884-1.281-4.954-2.803-4.877-2.912
						c0.083-0.13,2.25,1.175,5.089,2.436C334.351,392.412,336.77,393.156,336.728,393.305z"/>
				</g>
				<g style="opacity:0.5;">
					<path style="fill:#EBEBEB;" d="M348.988,372.642c-0.081,0.122-2.418-1.296-5.301-3.037c-2.882-1.744-5.223-3.154-5.153-3.283
						c0.067-0.124,2.529,1.086,5.422,2.837C346.85,370.907,349.066,372.525,348.988,372.642z"/>
				</g>
			</g>
		</g>
	</g>
</g>
<g id="Stars">
	<g>
		<g>
			<polygon style="fill:#455A64;" points="364.696,55.024 362.701,58.669 359.056,60.664 362.701,62.657 364.696,66.302 
				366.691,62.657 370.336,60.664 366.691,58.669 			"/>
		</g>
		<g>
			<polygon style="fill:#455A64;" points="436.157,271.296 434.162,274.942 430.517,276.937 434.162,278.929 436.157,282.575 
				438.152,278.929 441.798,276.937 438.152,274.942 			"/>
		</g>
		<g>
			<polygon style="fill:#455A64;" points="114.048,66.356 112.053,70.001 108.408,71.996 112.053,73.989 114.048,77.634 
				116.043,73.989 119.688,71.996 116.043,70.001 			"/>
		</g>
		<g>
			<polygon style="fill:#455A64;" points="409.909,170.509 408.682,172.749 406.445,173.973 408.682,175.2 409.909,177.44 
				411.136,175.2 413.374,173.973 411.136,172.749 			"/>
		</g>
		<g>
			<polygon style="fill:#455A64;" points="247.318,106.924 246.091,109.166 243.854,110.39 246.091,111.615 247.318,113.855 
				248.545,111.615 250.783,110.39 248.545,109.166 			"/>
		</g>
		<g>
			<polygon style="fill:#455A64;" points="177.485,164.61 176.395,166.604 174.405,167.693 176.395,168.782 177.485,170.773 
				178.576,168.782 180.565,167.693 178.576,166.604 			"/>
		</g>
		<g>
			<polygon style="fill:#455A64;" points="309.394,260.544 308.303,262.538 306.313,263.626 308.303,264.716 309.394,266.707 
				310.485,264.716 312.474,263.626 310.485,262.538 			"/>
		</g>
		<g>
			<polygon style="fill:#455A64;" points="117.567,279.326 116.476,281.319 114.487,282.408 116.476,283.497 117.567,285.488 
				118.658,283.497 120.647,282.408 118.658,281.319 			"/>
		</g>
	</g>
</g>
<g id="Floating_Money">
	<g>
		<g>
			<g>
				<g>
					<path style="fill:#E8505B;" d="M72.427,110.127c0,0,6.045-3.174,12.725,1.622c4.134,2.97,12.927,7.562,15.635,4.768
						l3.335-10.742c0,0-6.669-1.207-12.071-5.478c-5.309-4.199-15.887-3.965-15.887-3.965L72.427,110.127z"/>
				</g>
				<g>
					<g style="opacity:0.4;">
						<path style="fill:#FFFFFF;" d="M91.192,101.662c3.168,1.846,3.378,5.839,1.567,7.978c-1.811,2.138-5.99,1.575-8.127-0.235
							c-2.138-1.813-2.402-5.014-0.591-7.152C85.852,100.114,88.771,100.251,91.192,101.662z"/>
					</g>
					<g>
						<g>
							<path style="fill:#E8505B;" d="M91.082,103.802c-0.051,0.069-0.257,0.006-0.59-0.13c-0.332-0.13-0.798-0.343-1.36-0.432
								c-0.273-0.042-0.578-0.042-0.865,0.029c-0.28,0.067-0.546,0.226-0.664,0.425c-0.14,0.207-0.177,0.523-0.079,0.749
								c0.077,0.212,0.336,0.42,0.753,0.621c0.204,0.102,0.434,0.203,0.673,0.334c0.239,0.132,0.496,0.295,0.722,0.537
								c0.113,0.124,0.212,0.263,0.29,0.416c0.08,0.155,0.137,0.327,0.161,0.499c0.052,0.345-0.014,0.679-0.144,0.961
								c-0.133,0.282-0.331,0.518-0.573,0.69c-0.25,0.173-0.498,0.26-0.744,0.305c-0.489,0.088-0.915,0.006-1.269-0.107
								c-0.358-0.119-0.636-0.282-0.866-0.438c-0.227-0.155-0.405-0.308-0.539-0.437c-0.272-0.264-0.389-0.444-0.342-0.511
								c0.047-0.07,0.258-0.019,0.597,0.116c0.336,0.125,0.809,0.355,1.359,0.442c0.273,0.039,0.577,0.04,0.836-0.041
								c0.266-0.086,0.435-0.232,0.521-0.465c0.04-0.112,0.049-0.229,0.026-0.327c-0.01-0.052-0.03-0.095-0.057-0.142
								c-0.03-0.051-0.067-0.098-0.115-0.147c-0.19-0.201-0.597-0.374-1.074-0.605c-0.239-0.12-0.495-0.259-0.74-0.467
								c-0.122-0.106-0.236-0.226-0.339-0.363c-0.102-0.14-0.189-0.296-0.243-0.458c-0.232-0.657-0.083-1.334,0.285-1.815
								c0.39-0.507,0.934-0.701,1.396-0.76c0.468-0.059,0.886,0.013,1.242,0.127c0.701,0.243,1.137,0.61,1.411,0.87
								C91.022,103.548,91.13,103.737,91.082,103.802z"/>
						</g>
					</g>
					<g>
						<g>
							<path style="fill:#E8505B;" d="M89.074,101.481c0.158,0.052-0.284,1.836-0.99,3.983c-0.704,2.15-1.403,3.85-1.561,3.798
								c-0.158-0.052,0.284-1.835,0.988-3.985C88.214,103.128,88.916,101.429,89.074,101.481z"/>
						</g>
					</g>
					<g>
						<g>
							<path style="fill:#E8505B;" d="M89.881,101.962c0.159,0.051-0.232,1.676-0.872,3.624c-0.64,1.951-1.288,3.489-1.446,3.438
								c-0.158-0.052,0.232-1.676,0.873-3.625C89.075,103.449,89.723,101.91,89.881,101.962z"/>
						</g>
					</g>
				</g>
				<g style="opacity:0.5;">
					<path style="fill:#FFFFFF;" d="M102.77,106.458l-3.071,9.761l-0.103,0.021c-4.805,0.975-10.903-3.198-14.939-5.96
						c-0.695-0.476-1.352-0.926-1.926-1.296c-3.843-2.486-8.4-0.667-8.655-0.332l-0.329-0.135l3.141-10.584l0.112-0.017
						c6.827-1.044,13.022,1.872,16.251,4.686c3.016,2.627,9.259,3.809,9.321,3.82L102.77,106.458z M99.421,115.909l2.886-9.174
						c-1.117-0.226-6.475-1.409-9.292-3.864c-3.155-2.748-9.188-5.595-15.849-4.619l-2.933,9.884
						c0.36-0.174,0.807-0.313,0.937-0.352c1.021-0.306,4.596-1.145,7.756,0.898c0.577,0.374,1.236,0.825,1.934,1.302
						C88.815,112.691,94.779,116.773,99.421,115.909z"/>
				</g>
			</g>
		</g>
		<g>
			<g>
				<g>
					<path style="fill:#E8505B;" d="M448.459,196.651c0,0-0.066,11.659-12.656,17.88c-7.794,3.848-21.771,13.418-19.732,19.741
						l13.517,13.646c0,0,7.171-9.084,17.944-13.799c10.589-4.633,18.724-20.767,18.724-20.767L448.459,196.651z"/>
				</g>
				<g>
					<g style="opacity:0.4;">
						<path style="fill:#FFFFFF;" d="M446.161,231.729c-5.325,3.295-11.512,0.406-13.282-4.04
							c-1.77-4.446,2.432-10.292,6.875-12.062c4.448-1.768,9.485,0.403,11.255,4.848
							C452.78,224.921,450.232,229.211,446.161,231.729z"/>
					</g>
					<g>
						<g>
							<path style="fill:#E8505B;" d="M443.025,229.845c-0.064-0.132,0.197-0.393,0.669-0.785c0.463-0.396,1.158-0.928,1.743-1.704
								c0.283-0.378,0.528-0.837,0.65-1.326c0.124-0.475,0.097-1.004-0.109-1.342c-0.2-0.377-0.647-0.687-1.066-0.721
								c-0.381-0.054-0.903,0.169-1.541,0.637c-0.318,0.226-0.654,0.491-1.044,0.746c-0.39,0.254-0.843,0.511-1.389,0.657
								c-0.278,0.07-0.567,0.108-0.859,0.103c-0.297-0.004-0.603-0.055-0.881-0.158c-0.561-0.198-1.013-0.566-1.332-0.989
								c-0.319-0.427-0.516-0.915-0.58-1.417c-0.061-0.515,0.008-0.96,0.137-1.367c0.26-0.808,0.725-1.383,1.179-1.827
								c0.467-0.445,0.935-0.732,1.355-0.954c0.416-0.218,0.789-0.363,1.09-0.462c0.617-0.198,0.982-0.229,1.045-0.106
								c0.068,0.127-0.178,0.405-0.654,0.806c-0.457,0.406-1.183,0.935-1.757,1.694c-0.278,0.38-0.523,0.837-0.608,1.294
								c-0.084,0.47,0,0.842,0.284,1.159c0.137,0.15,0.305,0.258,0.473,0.301c0.087,0.026,0.167,0.03,0.26,0.027
								c0.101-0.004,0.202-0.022,0.314-0.055c0.454-0.125,1.043-0.599,1.773-1.133c0.372-0.264,0.787-0.538,1.297-0.741
								c0.258-0.1,0.53-0.175,0.819-0.22c0.293-0.04,0.598-0.048,0.885,0.001c1.176,0.178,2.077,0.945,2.507,1.886
								c0.451,0.994,0.307,1.97,0.025,2.715c-0.287,0.753-0.73,1.326-1.189,1.77c-0.928,0.862-1.832,1.224-2.444,1.428
								C443.455,229.959,443.084,229.971,443.025,229.845z"/>
						</g>
					</g>
					<g>
						<g>
							<path style="fill:#E8505B;" d="M448.135,228.681c-0.205,0.197-2.539-1.901-5.209-4.687c-2.675-2.786-4.678-5.204-4.472-5.401
								c0.205-0.197,2.539,1.901,5.214,4.687C446.342,226.064,448.34,228.484,448.135,228.681z"/>
						</g>
					</g>
					<g>
						<g>
							<path style="fill:#E8505B;" d="M446.761,229.512c-0.204,0.199-2.34-1.694-4.763-4.222c-2.428-2.53-4.226-4.742-4.022-4.938
								c0.205-0.197,2.34,1.694,4.763,4.224C445.167,227.104,446.966,229.316,446.761,229.512z"/>
						</g>
					</g>
				</g>
				<g style="opacity:0.5;">
					<path style="fill:#FFFFFF;" d="M429.642,245.332l-12.249-12.462l0.052-0.172c2.385-8.025,13.57-13.869,20.972-17.737
						c1.275-0.666,2.48-1.295,3.498-1.863c6.83-3.798,7.745-12.128,7.445-12.78l0.468-0.388l13.434,13.228l-0.064,0.183
						c-3.905,11.129-13.271,18.126-20.104,20.736c-6.38,2.438-13.171,10.9-13.238,10.986L429.642,245.332z M418.084,232.701
						l11.513,11.712c1.236-1.502,7.32-8.63,13.28-10.906c6.674-2.551,15.807-9.361,19.68-20.185l-12.545-12.352
						c-0.027,0.682-0.176,1.468-0.221,1.694c-0.357,1.784-1.961,7.846-7.577,10.97c-1.027,0.57-2.235,1.202-3.514,1.87
						C431.444,219.296,420.505,225.011,418.084,232.701z"/>
				</g>
			</g>
		</g>
		<g>
			<g>
				<g>
					<path style="fill:#E8505B;" d="M454.858,98.612c0,0-7.41,1.639-13.175-5.456c-3.567-4.393-11.657-11.885-15.378-9.679
						l-6.713,10.548c0,0,6.801,3.242,11.348,9.4c4.468,6.054,15.883,8.891,15.883,8.891L454.858,98.612z"/>
				</g>
				<g>
					<g style="opacity:0.4;">
						<path style="fill:#FFFFFF;" d="M432.26,102.212c-2.859-2.905-1.918-7.25,0.649-9.014c2.567-1.765,6.884,0.059,8.648,2.625
							c1.764,2.569,1.112,6.079-1.454,7.844C437.536,105.431,434.445,104.432,432.26,102.212z"/>
					</g>
					<g>
						<g>
							<path style="fill:#E8505B;" d="M433.003,99.949c0.075-0.06,0.278,0.068,0.595,0.312c0.318,0.237,0.756,0.601,1.333,0.861
								c0.281,0.125,0.608,0.214,0.936,0.221c0.32,0.01,0.652-0.083,0.836-0.263c0.211-0.181,0.343-0.51,0.304-0.781
								c-0.021-0.25-0.238-0.549-0.627-0.886c-0.19-0.169-0.406-0.344-0.624-0.555c-0.218-0.211-0.446-0.461-0.617-0.787
								c-0.084-0.166-0.15-0.344-0.189-0.531c-0.041-0.189-0.052-0.39-0.027-0.582c0.045-0.385,0.213-0.725,0.435-0.988
								c0.225-0.264,0.507-0.459,0.816-0.572c0.318-0.113,0.61-0.134,0.888-0.11c0.55,0.048,0.983,0.261,1.33,0.485
								c0.35,0.233,0.6,0.488,0.801,0.722c0.199,0.232,0.344,0.448,0.45,0.626c0.215,0.363,0.287,0.59,0.218,0.648
								c-0.071,0.062-0.283-0.055-0.606-0.299c-0.324-0.232-0.764-0.616-1.329-0.871c-0.281-0.122-0.607-0.211-0.909-0.2
								c-0.31,0.014-0.534,0.122-0.695,0.347c-0.076,0.109-0.12,0.231-0.123,0.343c-0.004,0.059,0.005,0.11,0.02,0.169
								c0.017,0.064,0.043,0.125,0.08,0.192c0.145,0.27,0.531,0.576,0.975,0.962c0.221,0.198,0.455,0.422,0.657,0.717
								c0.1,0.149,0.188,0.311,0.258,0.488c0.068,0.18,0.117,0.373,0.127,0.562c0.057,0.772-0.301,1.455-0.836,1.863
								c-0.566,0.43-1.206,0.479-1.72,0.407c-0.519-0.073-0.947-0.272-1.295-0.499c-0.681-0.465-1.041-0.987-1.259-1.345
								C432.993,100.239,432.932,100.004,433.003,99.949z"/>
						</g>
					</g>
					<g>
						<g>
							<path style="fill:#E8505B;" d="M434.479,103.025c-0.154-0.102,0.841-1.886,2.224-3.983c1.383-2.1,2.629-3.72,2.783-3.618
								c0.155,0.102-0.84,1.886-2.223,3.986C435.882,101.509,434.634,103.127,434.479,103.025z"/>
						</g>
					</g>
					<g>
						<g>
							<path style="fill:#E8505B;" d="M433.754,102.273c-0.156-0.101,0.738-1.73,1.993-3.632c1.256-1.906,2.4-3.367,2.555-3.265
								c0.154,0.102-0.738,1.73-1.995,3.633C435.052,100.914,433.908,102.374,433.754,102.273z"/>
						</g>
					</g>
				</g>
				<g style="opacity:0.5;">
					<path style="fill:#FFFFFF;" d="M421.242,93.687l6.144-9.573l0.117,0.008c5.439,0.357,10.761,6.614,14.284,10.755
						c0.607,0.713,1.18,1.387,1.687,1.952c3.396,3.788,8.816,3.168,9.187,2.883l0.313,0.241l-6.459,10.436l-0.125-0.014
						c-7.628-0.874-13.42-5.81-16.063-9.771c-2.468-3.698-8.818-6.789-8.883-6.819L421.242,93.687z M427.594,84.528l-5.775,8.998
						c1.132,0.568,6.534,3.402,8.838,6.857c2.582,3.869,8.222,8.684,15.651,9.582l6.032-9.745c-0.437,0.082-0.957,0.1-1.107,0.104
						c-1.184,0.031-5.264-0.113-8.057-3.228c-0.51-0.57-1.085-1.245-1.694-1.961C438.03,91.076,432.825,84.956,427.594,84.528z"/>
				</g>
			</g>
		</g>
		<g>
			<g>
				<g>
					<path style="fill:#E8505B;" d="M364.099,106.29c0,0-9.285,7.051-21.889,0.86c-7.801-3.835-23.905-9.087-27.677-3.617
						l-2.584,19.033c0,0,11.572,0.151,21.875,5.819c10.126,5.573,27.876,2.193,27.876,2.193L364.099,106.29z"/>
				</g>
				<g>
					<g style="opacity:0.4;">
						<path style="fill:#FFFFFF;" d="M334.886,125.842c-5.857-2.215-7.337-8.881-4.89-12.993c2.447-4.113,9.642-4.343,13.754-1.898
							c4.113,2.449,5.46,7.767,3.014,11.879C344.316,126.942,339.362,127.536,334.886,125.842z"/>
					</g>
					<g>
						<g>
							<path style="fill:#E8505B;" d="M334.468,122.207c0.066-0.132,0.432-0.083,1.03,0.052c0.596,0.126,1.441,0.352,2.413,0.344
								c0.472-0.006,0.986-0.092,1.448-0.293c0.452-0.192,0.855-0.535,0.997-0.904c0.177-0.388,0.151-0.931-0.078-1.284
								c-0.19-0.335-0.685-0.613-1.444-0.834c-0.373-0.114-0.788-0.219-1.228-0.373c-0.439-0.155-0.919-0.357-1.367-0.701
								c-0.225-0.177-0.43-0.384-0.606-0.618c-0.178-0.238-0.323-0.512-0.412-0.795c-0.185-0.566-0.169-1.148-0.028-1.659
								c0.144-0.513,0.411-0.966,0.77-1.323c0.371-0.362,0.766-0.579,1.167-0.724c0.799-0.286,1.539-0.268,2.167-0.178
								c0.637,0.1,1.15,0.295,1.582,0.493c0.426,0.196,0.768,0.404,1.03,0.583c0.533,0.368,0.78,0.639,0.721,0.764
								c-0.059,0.132-0.43,0.105-1.038-0.028c-0.601-0.115-1.462-0.369-2.414-0.361c-0.471,0.011-0.982,0.095-1.397,0.306
								c-0.424,0.22-0.667,0.513-0.746,0.931c-0.035,0.2-0.018,0.399,0.049,0.558c0.032,0.085,0.078,0.151,0.137,0.222
								c0.065,0.078,0.14,0.147,0.235,0.215c0.376,0.284,1.111,0.462,1.979,0.716c0.436,0.134,0.906,0.296,1.378,0.577
								c0.236,0.144,0.462,0.313,0.673,0.516c0.211,0.208,0.403,0.445,0.539,0.702c0.576,1.04,0.516,2.223,0.032,3.137
								c-0.513,0.963-1.374,1.444-2.137,1.674c-0.772,0.232-1.496,0.229-2.128,0.136c-1.249-0.211-2.086-0.707-2.621-1.067
								C334.639,122.618,334.404,122.331,334.468,122.207z"/>
						</g>
					</g>
					<g>
						<g>
							<path style="fill:#E8505B;" d="M338.504,125.55c-0.281-0.043-0.039-3.171,0.542-6.987c0.579-3.819,1.276-6.88,1.557-6.837
								c0.281,0.042,0.04,3.171-0.539,6.99C339.487,122.534,338.785,125.593,338.504,125.55z"/>
						</g>
					</g>
					<g>
						<g>
							<path style="fill:#E8505B;" d="M337.008,124.967c-0.282-0.041-0.083-2.887,0.446-6.35c0.527-3.467,1.184-6.24,1.465-6.198
								c0.281,0.042,0.082,2.888-0.447,6.351C337.946,122.236,337.289,125.01,337.008,124.967z"/>
						</g>
					</g>
				</g>
				<g style="opacity:0.5;">
					<path style="fill:#FFFFFF;" d="M314.033,121.033l2.417-17.306l0.168-0.064c7.817-2.999,19.266,2.309,26.843,5.821
						c1.305,0.605,2.538,1.177,3.609,1.639c7.174,3.101,14.335-1.249,14.67-1.884l0.592,0.135l-2.302,18.712l-0.184,0.061
						c-11.204,3.685-22.459,0.523-28.692-3.305c-5.821-3.573-16.668-3.801-16.777-3.802L314.033,121.033z M317.006,104.172
						l-2.271,16.266c1.944,0.065,11.303,0.545,16.739,3.884c6.089,3.738,17.054,6.829,27.997,3.305l2.15-17.474
						c-0.557,0.395-1.271,0.755-1.478,0.857c-1.632,0.804-7.416,3.226-13.315,0.677c-1.078-0.467-2.315-1.04-3.624-1.646
						C335.776,106.597,324.579,101.406,317.006,104.172z"/>
				</g>
			</g>
		</g>
		<g>
			<g>
				<g>
					<path style="fill:#E8505B;" d="M354.435,235.917c0,0-9.239-2.005-12.067-13.035c-1.749-6.828-7.001-19.52-12.36-18.961
						l-13.09,8.44c0,0,6.007,7.21,7.945,16.547c1.903,9.177,13.342,18.333,13.342,18.333L354.435,235.917z"/>
				</g>
				<g>
					<g style="opacity:0.4;">
						<path style="fill:#FFFFFF;" d="M326.989,228.222c-1.723-4.777,1.605-9.202,5.429-9.862c3.824-0.66,7.759,3.652,8.419,7.474
							c0.658,3.825-1.908,7.458-5.731,8.118C331.282,234.613,328.305,231.873,326.989,228.222z"/>
					</g>
					<g>
						<g>
							<path style="fill:#E8505B;" d="M329.009,226.048c0.116-0.029,0.279,0.222,0.511,0.662c0.236,0.433,0.543,1.074,1.06,1.668
								c0.253,0.288,0.576,0.559,0.943,0.738c0.356,0.177,0.781,0.245,1.083,0.138c0.333-0.095,0.653-0.398,0.75-0.725
								c0.107-0.293,0.017-0.745-0.247-1.329c-0.127-0.29-0.28-0.601-0.417-0.953c-0.136-0.352-0.264-0.754-0.289-1.212
								c-0.009-0.232,0.01-0.467,0.062-0.699c0.053-0.235,0.145-0.469,0.273-0.673c0.251-0.412,0.618-0.709,1.007-0.892
								c0.392-0.182,0.812-0.256,1.221-0.223c0.419,0.038,0.76,0.167,1.062,0.337c0.598,0.341,0.976,0.807,1.252,1.242
								c0.274,0.445,0.424,0.864,0.53,1.234c0.104,0.366,0.156,0.686,0.184,0.942c0.054,0.523,0.018,0.817-0.091,0.847
								c-0.112,0.033-0.291-0.209-0.53-0.654c-0.246-0.431-0.543-1.095-1.05-1.678c-0.255-0.284-0.576-0.555-0.924-0.699
								c-0.359-0.145-0.668-0.141-0.967,0.031c-0.142,0.084-0.256,0.199-0.318,0.325c-0.035,0.064-0.052,0.127-0.065,0.201
								c-0.013,0.081-0.016,0.164-0.009,0.258c0.023,0.381,0.301,0.928,0.602,1.597c0.147,0.339,0.295,0.715,0.371,1.153
								c0.036,0.221,0.05,0.45,0.037,0.687c-0.017,0.239-0.062,0.483-0.149,0.702c-0.338,0.903-1.098,1.49-1.916,1.673
								c-0.864,0.191-1.614-0.086-2.158-0.435c-0.55-0.353-0.93-0.801-1.206-1.24c-0.528-0.881-0.664-1.658-0.724-2.178
								C328.846,226.371,328.899,226.074,329.009,226.048z"/>
						</g>
					</g>
					<g>
						<g>
							<path style="fill:#E8505B;" d="M329.077,230.298c-0.122-0.195,1.933-1.696,4.591-3.348c2.659-1.656,4.912-2.84,5.034-2.644
								c0.122,0.195-1.933,1.696-4.591,3.352C331.453,229.313,329.198,230.493,329.077,230.298z"/>
						</g>
					</g>
					<g>
						<g>
							<path style="fill:#E8505B;" d="M328.647,229.069c-0.123-0.196,1.736-1.573,4.147-3.072c2.414-1.503,4.47-2.559,4.591-2.364
								c0.122,0.195-1.736,1.573-4.149,3.072C330.824,228.207,328.769,229.264,328.647,229.069z"/>
						</g>
					</g>
				</g>
				<g style="opacity:0.5;">
					<path style="fill:#FFFFFF;" d="M318.961,212.838l11.938-7.632l0.128,0.07c5.968,3.236,8.732,13.088,10.562,19.609
						c0.315,1.123,0.612,2.184,0.892,3.088c1.87,6.055,8.326,8.175,8.894,8.047l0.229,0.436l-12.744,8.444l-0.134-0.081
						c-8.176-4.962-12.16-13.563-13.087-19.422c-0.867-5.47-6.443-12.274-6.5-12.342L318.961,212.838z M330.918,205.782
						l-11.22,7.174c0.985,1.232,5.622,7.253,6.43,12.362c0.906,5.722,4.781,14.108,12.72,18.994l11.901-7.886
						c-0.537-0.135-1.135-0.385-1.307-0.459c-1.356-0.582-5.897-2.869-7.435-7.848c-0.28-0.91-0.579-1.974-0.896-3.101
						C339.318,218.626,336.614,208.991,330.918,205.782z"/>
				</g>
			</g>
		</g>
		<g>
			<g>
				<g>
					<path style="fill:#E8505B;" d="M266.789,163.245c0,0-7.351,1.393-12.819-5.771c-3.383-4.436-11.131-12.061-14.863-9.999
						l-6.931,10.193c0,0,6.604,3.399,10.9,9.603c4.221,6.099,15.385,9.238,15.385,9.238L266.789,163.245z"/>
				</g>
				<g>
					<g style="opacity:0.4;">
						<path style="fill:#FFFFFF;" d="M244.413,166.115c-2.731-2.949-1.673-7.201,0.91-8.863c2.582-1.662,6.782,0.265,8.443,2.846
							c1.661,2.584,0.914,6.024-1.668,7.686C249.515,169.446,246.5,168.369,244.413,166.115z"/>
					</g>
					<g>
						<g>
							<path style="fill:#E8505B;" d="M245.213,163.908c0.075-0.057,0.272,0.076,0.577,0.325c0.306,0.243,0.727,0.615,1.288,0.888
								c0.273,0.132,0.592,0.229,0.915,0.246c0.314,0.019,0.644-0.063,0.832-0.234c0.213-0.172,0.353-0.492,0.323-0.76
								c-0.013-0.247-0.218-0.548-0.591-0.892c-0.182-0.172-0.39-0.351-0.599-0.566c-0.208-0.215-0.426-0.468-0.585-0.794
								c-0.078-0.166-0.138-0.344-0.171-0.528c-0.034-0.188-0.039-0.386-0.009-0.575c0.056-0.378,0.232-0.708,0.459-0.961
								c0.229-0.254,0.513-0.437,0.821-0.54c0.317-0.102,0.605-0.113,0.878-0.082c0.541,0.064,0.961,0.286,1.296,0.518
								c0.337,0.24,0.576,0.499,0.767,0.736c0.189,0.235,0.326,0.452,0.425,0.63c0.201,0.364,0.265,0.59,0.195,0.645
								c-0.072,0.059-0.277-0.063-0.588-0.313c-0.312-0.238-0.734-0.63-1.283-0.898c-0.273-0.128-0.591-0.227-0.89-0.224
								c-0.306,0.005-0.53,0.104-0.695,0.321c-0.078,0.105-0.125,0.224-0.132,0.335c-0.006,0.058,0.002,0.109,0.015,0.167
								c0.015,0.063,0.039,0.124,0.074,0.191c0.135,0.271,0.506,0.583,0.932,0.978c0.212,0.202,0.436,0.43,0.626,0.726
								c0.094,0.15,0.176,0.312,0.239,0.489c0.061,0.18,0.104,0.371,0.109,0.558c0.033,0.762-0.34,1.425-0.879,1.811
								c-0.57,0.406-1.203,0.436-1.707,0.35c-0.51-0.088-0.925-0.297-1.261-0.531c-0.657-0.479-0.996-1.003-1.2-1.363
								C245.194,164.193,245.141,163.961,245.213,163.908z"/>
						</g>
					</g>
					<g>
						<g>
							<path style="fill:#E8505B;" d="M246.575,166.983c-0.149-0.105,0.885-1.833,2.311-3.858c1.426-2.028,2.702-3.587,2.851-3.482
								c0.149,0.105-0.885,1.833-2.31,3.861C248.003,165.532,246.724,167.088,246.575,166.983z"/>
						</g>
					</g>
					<g>
						<g>
							<path style="fill:#E8505B;" d="M245.883,166.221c-0.15-0.104,0.779-1.682,2.073-3.52c1.295-1.841,2.466-3.245,2.615-3.141
								c0.149,0.105-0.779,1.682-2.074,3.52C247.203,164.92,246.032,166.325,245.883,166.221z"/>
						</g>
					</g>
				</g>
				<g style="opacity:0.5;">
					<path style="fill:#FFFFFF;" d="M233.812,157.385l6.341-9.249l0.115,0.011c5.348,0.515,10.405,6.84,13.753,11.026
						c0.576,0.721,1.121,1.402,1.604,1.974c3.233,3.835,8.592,3.385,8.966,3.117l0.302,0.247l-6.678,10.09l-0.123-0.018
						c-7.49-1.09-13.05-6.127-15.535-10.11c-2.321-3.718-8.486-6.954-8.548-6.986L233.812,157.385z M240.345,148.551l-5.96,8.693
						c1.098,0.594,6.337,3.548,8.504,7.022c2.428,3.889,7.841,8.804,15.135,9.911l6.236-9.422c-0.433,0.067-0.946,0.07-1.094,0.069
						c-1.168-0.005-5.183-0.269-7.842-3.422c-0.486-0.577-1.032-1.26-1.61-1.983C250.432,155.316,245.486,149.129,240.345,148.551z"
						/>
				</g>
			</g>
		</g>
		<g>
			<g>
				<g>
					<path style="fill:#E8505B;" d="M82.432,299.086c0,0-7.351,1.393-12.819-5.771c-3.383-4.436-11.131-12.061-14.863-9.999
						l-6.931,10.193c0,0,6.604,3.399,10.9,9.603c4.221,6.099,15.384,9.238,15.384,9.238L82.432,299.086z"/>
				</g>
				<g>
					<g style="opacity:0.4;">
						<path style="fill:#FFFFFF;" d="M60.056,301.956c-2.731-2.949-1.673-7.201,0.91-8.863c2.582-1.662,6.782,0.265,8.443,2.846
							c1.661,2.584,0.914,6.024-1.668,7.686C65.158,305.286,62.143,304.21,60.056,301.956z"/>
					</g>
					<g>
						<g>
							<path style="fill:#E8505B;" d="M60.856,299.748c0.075-0.057,0.272,0.076,0.577,0.325c0.306,0.243,0.727,0.615,1.288,0.888
								c0.273,0.132,0.592,0.229,0.915,0.246c0.314,0.019,0.644-0.063,0.832-0.234c0.213-0.172,0.353-0.492,0.323-0.76
								c-0.013-0.247-0.218-0.548-0.591-0.892c-0.182-0.172-0.39-0.351-0.599-0.566c-0.208-0.215-0.426-0.468-0.585-0.794
								c-0.078-0.166-0.138-0.344-0.171-0.528c-0.034-0.188-0.039-0.386-0.009-0.575c0.056-0.378,0.232-0.708,0.459-0.961
								c0.229-0.254,0.513-0.437,0.821-0.539c0.317-0.102,0.605-0.113,0.878-0.082c0.541,0.064,0.961,0.286,1.296,0.518
								c0.338,0.24,0.576,0.499,0.767,0.736c0.189,0.235,0.326,0.452,0.425,0.63c0.201,0.364,0.265,0.59,0.195,0.645
								c-0.072,0.059-0.277-0.063-0.588-0.313c-0.312-0.238-0.734-0.63-1.283-0.898c-0.274-0.129-0.591-0.227-0.89-0.224
								c-0.306,0.005-0.53,0.104-0.695,0.321c-0.078,0.105-0.125,0.224-0.132,0.335c-0.006,0.058,0.002,0.109,0.015,0.167
								c0.015,0.063,0.038,0.124,0.074,0.191c0.134,0.271,0.506,0.583,0.932,0.978c0.212,0.202,0.436,0.43,0.626,0.726
								c0.094,0.15,0.176,0.312,0.239,0.489c0.061,0.18,0.104,0.371,0.109,0.558c0.033,0.762-0.34,1.425-0.879,1.811
								c-0.57,0.406-1.203,0.436-1.707,0.35c-0.509-0.088-0.925-0.297-1.261-0.531c-0.657-0.478-0.996-1.003-1.2-1.363
								C60.837,300.033,60.784,299.801,60.856,299.748z"/>
						</g>
					</g>
					<g>
						<g>
							<path style="fill:#E8505B;" d="M62.218,302.824c-0.149-0.105,0.885-1.833,2.311-3.858c1.426-2.028,2.702-3.587,2.851-3.482
								c0.149,0.105-0.885,1.833-2.31,3.861C63.646,301.372,62.367,302.928,62.218,302.824z"/>
						</g>
					</g>
					<g>
						<g>
							<path style="fill:#E8505B;" d="M61.526,302.061c-0.15-0.104,0.779-1.682,2.073-3.52c1.295-1.841,2.466-3.246,2.615-3.141
								c0.149,0.105-0.779,1.682-2.074,3.52C62.846,300.76,61.675,302.165,61.526,302.061z"/>
						</g>
					</g>
				</g>
				<g style="opacity:0.5;">
					<path style="fill:#FFFFFF;" d="M49.455,293.225l6.341-9.249l0.115,0.012c5.348,0.515,10.405,6.84,13.753,11.026
						c0.576,0.721,1.121,1.402,1.604,1.974c3.233,3.835,8.592,3.385,8.966,3.116l0.302,0.247l-6.678,10.089l-0.123-0.018
						c-7.49-1.09-13.05-6.127-15.535-10.11c-2.321-3.718-8.486-6.954-8.548-6.986L49.455,293.225z M55.988,284.391l-5.96,8.693
						c1.098,0.594,6.337,3.548,8.504,7.022c2.428,3.889,7.841,8.804,15.136,9.911l6.236-9.422c-0.433,0.067-0.946,0.07-1.094,0.069
						c-1.168-0.005-5.183-0.269-7.842-3.422c-0.485-0.577-1.032-1.26-1.61-1.983C66.076,291.156,61.129,284.97,55.988,284.391z"/>
				</g>
			</g>
		</g>
		<g>
			<g>
				<g>
					<path style="fill:#E8505B;" d="M190.214,204.838c0,0-2.731,8.906-13.796,10.773c-6.849,1.153-19.745,5.263-19.639,10.57
						l7.206,13.55c0,0,7.576-5.303,16.904-6.435c9.168-1.111,19.103-11.587,19.103-11.587L190.214,204.838z"/>
				</g>
				<g>
					<g style="opacity:0.4;">
						<path style="fill:#FFFFFF;" d="M180.391,231.153c-4.833,1.297-8.903-2.336-9.236-6.145c-0.332-3.809,4.227-7.317,8.035-7.65
							c3.811-0.331,7.166,2.489,7.498,6.298C187.02,227.465,184.084,230.162,180.391,231.153z"/>
					</g>
					<g>
						<g>
							<path style="fill:#E8505B;" d="M178.423,228.99c-0.019-0.116,0.241-0.255,0.692-0.447c0.445-0.196,1.099-0.444,1.726-0.903
								c0.303-0.225,0.596-0.519,0.802-0.865c0.204-0.335,0.305-0.746,0.225-1.052c-0.066-0.335-0.337-0.674-0.65-0.797
								c-0.279-0.129-0.73-0.078-1.326,0.133c-0.295,0.1-0.613,0.226-0.971,0.331c-0.357,0.105-0.762,0.197-1.214,0.184
								c-0.229-0.01-0.458-0.048-0.681-0.118c-0.226-0.071-0.448-0.181-0.638-0.324c-0.384-0.281-0.645-0.666-0.792-1.063
								c-0.146-0.4-0.184-0.819-0.118-1.218c0.072-0.408,0.226-0.733,0.419-1.015c0.385-0.559,0.873-0.892,1.322-1.127
								c0.46-0.233,0.884-0.345,1.256-0.418c0.368-0.072,0.687-0.096,0.941-0.103c0.518-0.01,0.804,0.05,0.824,0.159
								c0.023,0.113-0.229,0.269-0.686,0.466c-0.443,0.206-1.12,0.443-1.734,0.892c-0.3,0.227-0.593,0.52-0.763,0.85
								c-0.173,0.34-0.193,0.644-0.049,0.952c0.07,0.146,0.174,0.268,0.292,0.339c0.06,0.04,0.121,0.062,0.192,0.08
								c0.078,0.02,0.159,0.03,0.253,0.03c0.376,0.009,0.936-0.219,1.618-0.459c0.345-0.117,0.726-0.231,1.163-0.269
								c0.22-0.017,0.446-0.012,0.677,0.02c0.234,0.037,0.469,0.101,0.677,0.204c0.859,0.406,1.372,1.201,1.485,2.02
								c0.117,0.864-0.217,1.578-0.605,2.083c-0.392,0.51-0.863,0.847-1.317,1.081c-0.908,0.446-1.683,0.515-2.198,0.531
								C178.726,229.177,178.439,229.1,178.423,228.99z"/>
						</g>
					</g>
					<g>
						<g>
							<path style="fill:#E8505B;" d="M182.601,229.275c-0.202,0.103-1.506-2.038-2.909-4.785c-1.407-2.747-2.383-5.058-2.181-5.161
								c0.202-0.104,1.506,2.038,2.912,4.785C181.831,226.86,182.804,229.171,182.601,229.275z"/>
						</g>
					</g>
					<g>
						<g>
							<path style="fill:#E8505B;" d="M181.359,229.595c-0.202,0.105-1.401-1.834-2.674-4.326c-1.276-2.495-2.144-4.6-1.942-4.703
								c0.202-0.104,1.401,1.834,2.674,4.328C180.693,227.386,181.561,229.491,181.359,229.595z"/>
						</g>
					</g>
				</g>
				<g style="opacity:0.5;">
					<path style="fill:#FFFFFF;" d="M164.622,237.765l-6.508-12.353l0.079-0.12c3.671-5.593,13.573-7.493,20.126-8.752
						c1.129-0.216,2.195-0.421,3.105-0.621c6.1-1.336,8.715-7.5,8.636-8.068l0.447-0.189l7.239,13.211l-0.091,0.125
						c-5.547,7.619-14.323,10.82-20.152,11.247c-5.443,0.399-12.585,5.313-12.656,5.363L164.622,237.765z M158.681,225.441
						l6.118,11.61c1.291-0.865,7.586-4.921,12.67-5.293c5.694-0.418,14.248-3.529,19.701-10.922l-6.76-12.337
						c-0.177,0.516-0.472,1.083-0.559,1.246c-0.684,1.283-3.305,5.554-8.32,6.653c-0.917,0.2-1.986,0.406-3.119,0.623
						C171.987,218.255,162.302,220.114,158.681,225.441z"/>
				</g>
			</g>
		</g>
		<g>
			<g>
				<g>
					<path style="fill:#E8505B;" d="M130.242,179.643c0,0-9.154,7.22-21.87,1.26c-7.87-3.692-24.068-8.647-27.739-3.109
						l-2.235,19.077c0,0,11.573-0.061,21.978,5.417c10.226,5.386,27.911,1.681,27.911,1.681L130.242,179.643z"/>
				</g>
				<g>
					<g style="opacity:0.4;">
						<path style="fill:#FFFFFF;" d="M101.392,199.727c-5.897-2.107-7.498-8.745-5.128-12.901c2.371-4.157,9.561-4.519,13.716-2.15
							c4.157,2.374,5.602,7.665,3.231,11.822C110.841,200.653,105.899,201.337,101.392,199.727z"/>
					</g>
					<g>
						<g>
							<path style="fill:#E8505B;" d="M100.908,196.1c0.063-0.133,0.43-0.091,1.031,0.033c0.598,0.115,1.448,0.326,2.419,0.3
								c0.472-0.015,0.984-0.11,1.442-0.319c0.448-0.2,0.845-0.551,0.981-0.922c0.17-0.391,0.134-0.934-0.102-1.283
								c-0.196-0.331-0.696-0.6-1.459-0.807c-0.375-0.107-0.792-0.205-1.235-0.35c-0.442-0.146-0.925-0.34-1.38-0.676
								c-0.228-0.173-0.437-0.376-0.617-0.607c-0.182-0.234-0.332-0.505-0.426-0.788c-0.195-0.563-0.19-1.145-0.059-1.658
								c0.134-0.516,0.394-0.974,0.746-1.337c0.365-0.369,0.755-0.593,1.154-0.746c0.794-0.301,1.534-0.296,2.163-0.218
								c0.639,0.088,1.155,0.274,1.59,0.464c0.43,0.189,0.775,0.39,1.041,0.564c0.54,0.359,0.791,0.624,0.735,0.751
								c-0.057,0.133-0.427,0.113-1.038-0.009c-0.603-0.104-1.469-0.342-2.42-0.317c-0.471,0.02-0.98,0.113-1.391,0.331
								c-0.42,0.227-0.658,0.525-0.729,0.944c-0.032,0.201-0.011,0.4,0.059,0.557c0.034,0.084,0.08,0.149,0.141,0.22
								c0.066,0.076,0.143,0.144,0.239,0.211c0.381,0.277,1.119,0.442,1.992,0.68c0.438,0.126,0.912,0.279,1.388,0.552
								c0.238,0.139,0.468,0.305,0.682,0.503c0.214,0.204,0.411,0.438,0.552,0.692c0.595,1.03,0.557,2.213,0.09,3.136
								c-0.495,0.972-1.348,1.469-2.106,1.713c-0.767,0.246-1.492,0.257-2.125,0.175c-1.252-0.188-2.099-0.669-2.641-1.019
								C101.087,196.508,100.846,196.224,100.908,196.1z"/>
						</g>
					</g>
					<g>
						<g>
							<path style="fill:#E8505B;" d="M105.005,199.368c-0.281-0.038-0.098-3.17,0.414-6.995c0.509-3.829,1.15-6.902,1.432-6.865
								c0.281,0.037,0.098,3.17-0.411,6.999C105.932,196.334,105.287,199.406,105.005,199.368z"/>
						</g>
					</g>
					<g>
						<g>
							<path style="fill:#E8505B;" d="M103.499,198.813c-0.283-0.036-0.136-2.885,0.329-6.357c0.463-3.476,1.07-6.261,1.351-6.223
								c0.281,0.037,0.135,2.886-0.331,6.358C104.386,196.065,103.78,198.85,103.499,198.813z"/>
						</g>
					</g>
				</g>
				<g style="opacity:0.5;">
					<path style="fill:#FFFFFF;" d="M80.455,195.3l2.1-17.347l0.167-0.067c7.761-3.141,19.305,1.955,26.945,5.328
						c1.316,0.581,2.559,1.13,3.638,1.572c7.229,2.969,14.31-1.511,14.633-2.152l0.595,0.124l-1.959,18.751l-0.182,0.064
						c-11.135,3.89-22.445,0.934-28.748-2.778c-5.885-3.465-16.735-3.495-16.844-3.494L80.455,195.3z M83.118,178.387l-1.973,16.304
						c1.945,0.029,11.312,0.338,16.808,3.577c6.157,3.625,17.176,6.516,28.052,2.792l1.829-17.51
						c-0.55,0.405-1.257,0.778-1.462,0.884c-1.618,0.834-7.356,3.362-13.3,0.921c-1.086-0.447-2.333-0.997-3.654-1.58
						C101.93,180.468,90.64,175.483,83.118,178.387z"/>
				</g>
			</g>
		</g>
		<g>
			<g>
				<g>
					<path style="fill:#E8505B;" d="M203.627,57.065c0,0,1.283,10.202-9.01,17.09c-6.373,4.261-17.493,14.236-14.983,19.531
						l13.388,10.378c0,0,5.225-8.768,14.103-14.13c8.726-5.269,13.984-20.312,13.984-20.312L203.627,57.065z"/>
				</g>
				<g>
					<g style="opacity:0.4;">
						<path style="fill:#FFFFFF;" d="M205.652,88.001c-4.277,3.493-10.02,1.679-12.079-2.005c-2.059-3.684,0.943-9.279,4.625-11.338
							c3.686-2.058,8.34-0.739,10.399,2.945C210.656,81.287,208.921,85.331,205.652,88.001z"/>
					</g>
					<g>
						<g>
							<path style="fill:#E8505B;" d="M202.692,86.715c-0.071-0.108,0.127-0.367,0.495-0.763c0.359-0.399,0.905-0.945,1.328-1.69
								c0.204-0.364,0.365-0.793,0.416-1.234c0.053-0.43-0.031-0.889-0.249-1.161c-0.218-0.307-0.645-0.526-1.015-0.507
								c-0.339-0.003-0.77,0.252-1.274,0.734c-0.251,0.235-0.515,0.505-0.827,0.773c-0.312,0.267-0.678,0.544-1.139,0.734
								c-0.235,0.093-0.483,0.159-0.74,0.189c-0.26,0.031-0.533,0.021-0.789-0.037c-0.514-0.109-0.951-0.378-1.279-0.711
								c-0.328-0.337-0.556-0.741-0.67-1.172c-0.113-0.443-0.104-0.84-0.038-1.211c0.134-0.736,0.475-1.293,0.821-1.733
								c0.358-0.442,0.733-0.748,1.075-0.99c0.338-0.239,0.648-0.408,0.9-0.529c0.517-0.244,0.832-0.313,0.902-0.213
								c0.074,0.103-0.109,0.374-0.479,0.78c-0.353,0.408-0.927,0.953-1.342,1.683c-0.2,0.364-0.361,0.792-0.383,1.201
								c-0.02,0.421,0.097,0.736,0.381,0.98c0.137,0.115,0.297,0.19,0.448,0.209c0.079,0.013,0.149,0.007,0.23-0.006
								c0.088-0.015,0.174-0.042,0.268-0.085c0.383-0.161,0.843-0.644,1.421-1.194c0.295-0.274,0.626-0.561,1.049-0.797
								c0.214-0.117,0.443-0.214,0.691-0.286c0.252-0.069,0.518-0.111,0.774-0.101c1.048,0.02,1.925,0.588,2.409,1.361
								c0.509,0.817,0.495,1.687,0.334,2.371c-0.164,0.691-0.486,1.243-0.836,1.685c-0.712,0.86-1.461,1.281-1.973,1.53
								C203.082,86.765,202.759,86.818,202.692,86.715z"/>
						</g>
					</g>
					<g>
						<g>
							<path style="fill:#E8505B;" d="M207.027,85.109c-0.156,0.195-2.438-1.37-5.094-3.499c-2.66-2.129-4.689-4.013-4.532-4.208
								c0.156-0.196,2.438,1.37,5.098,3.498C205.158,83.027,207.184,84.913,207.027,85.109z"/>
						</g>
					</g>
					<g>
						<g>
							<path style="fill:#E8505B;" d="M205.922,85.994c-0.156,0.197-2.241-1.212-4.65-3.144c-2.414-1.933-4.241-3.66-4.084-3.855
								c0.156-0.196,2.241,1.212,4.651,3.146C204.251,84.072,206.078,85.798,205.922,85.994z"/>
						</g>
					</g>
				</g>
				<g style="opacity:0.5;">
					<path style="fill:#FFFFFF;" d="M192.772,101.795l-12.144-9.488l0.025-0.156c1.163-7.292,10.27-13.688,16.298-17.921
						c1.038-0.729,2.019-1.418,2.845-2.031c5.536-4.107,5.377-11.495,5.04-12.031l0.364-0.393l13.268,10.021l-0.035,0.167
						c-2.135,10.18-9.519,17.376-15.193,20.444c-5.298,2.866-10.262,11.045-10.312,11.128L192.772,101.795z M181.213,92.08
						l11.414,8.917c0.908-1.456,5.408-8.388,10.357-11.063c5.542-2.998,12.745-10.003,14.887-19.913l-12.39-9.358
						c0.055,0.6,0.015,1.304,0.002,1.507c-0.107,1.601-0.812,7.086-5.363,10.464c-0.832,0.617-1.816,1.308-2.857,2.039
						C191.354,78.822,182.446,85.077,181.213,92.08z"/>
				</g>
			</g>
		</g>
	</g>
</g>
<g id="Money_1_">
	<g>
		<g>
			<g>
				<g>
					<rect x="379.124" y="425.667" style="fill:#263238;" width="52.659" height="11.392"/>
					<polygon style="fill:#E0E0E0;" points="400.031,425.667 400.9,437.059 408.333,437.059 408.72,425.667 					"/>
				</g>
				<g>
					<rect x="366.346" y="425.666" style="fill:#455A64;" width="52.659" height="11.393"/>
					<g>
						<path style="fill:#263238;" d="M418.84,427.453c0,0.144-11.715,0.26-26.163,0.26c-14.453,0-26.166-0.117-26.166-0.26
							c0-0.144,11.713-0.26,26.166-0.26C407.125,427.193,418.84,427.309,418.84,427.453z"/>
					</g>
					<g>
						<path style="fill:#263238;" d="M418.823,430.06c0,0.144-11.715,0.26-26.163,0.26c-14.453,0-26.166-0.117-26.166-0.26
							s11.713-0.26,26.166-0.26C407.108,429.799,418.823,429.916,418.823,430.06z"/>
					</g>
					<g>
						<path style="fill:#263238;" d="M418.823,432.666c0,0.144-11.715,0.26-26.163,0.26c-14.453,0-26.166-0.117-26.166-0.26
							c0-0.144,11.713-0.26,26.166-0.26C407.108,432.406,418.823,432.522,418.823,432.666z"/>
					</g>
					<g>
						<path style="fill:#263238;" d="M418.823,435.273c0,0.144-11.715,0.26-26.163,0.26c-14.453,0-26.166-0.117-26.166-0.26
							s11.713-0.26,26.166-0.26C407.108,435.012,418.823,435.129,418.823,435.273z"/>
					</g>
					<polygon style="fill:#E0E0E0;" points="387.253,425.667 388.122,437.059 395.556,437.059 395.942,425.667 					"/>
				</g>
			</g>
			<g>
				<g>
					<rect x="385.513" y="414.4" style="fill:#263238;" width="52.659" height="11.393"/>
					<polygon style="fill:#E0E0E0;" points="406.42,414.4 407.289,425.793 414.722,425.793 415.108,414.4 					"/>
				</g>
				<g>
					<rect x="372.735" y="414.399" style="fill:#455A64;" width="52.659" height="11.392"/>
					<g>
						<path style="fill:#263238;" d="M425.229,416.186c0,0.144-11.715,0.26-26.163,0.26c-14.453,0-26.166-0.117-26.166-0.26
							c0-0.144,11.713-0.26,26.166-0.26C413.514,415.926,425.229,416.043,425.229,416.186z"/>
					</g>
					<g>
						<path style="fill:#263238;" d="M425.212,418.793c0,0.144-11.715,0.26-26.163,0.26c-14.453,0-26.166-0.117-26.166-0.26
							s11.713-0.26,26.166-0.26C413.497,418.533,425.212,418.649,425.212,418.793z"/>
					</g>
					<g>
						<path style="fill:#263238;" d="M425.212,421.4c0,0.144-11.715,0.26-26.163,0.26c-14.453,0-26.166-0.117-26.166-0.26
							c0-0.144,11.713-0.26,26.166-0.26C413.497,421.139,425.212,421.256,425.212,421.4z"/>
					</g>
					<g>
						<path style="fill:#263238;" d="M425.212,424.006c0,0.144-11.715,0.26-26.163,0.26c-14.453,0-26.166-0.117-26.166-0.26
							c0-0.144,11.713-0.26,26.166-0.26C413.497,423.746,425.212,423.862,425.212,424.006z"/>
					</g>
					<polygon style="fill:#E0E0E0;" points="393.642,414.4 394.511,425.793 401.944,425.793 402.331,414.4 					"/>
				</g>
			</g>
		</g>
		<g>
			<g>
				<g>
					<rect x="381.937" y="448.325" style="fill:#263238;" width="52.659" height="11.392"/>
					<polygon style="fill:#E0E0E0;" points="402.843,448.325 403.712,459.718 411.146,459.718 411.532,448.325 					"/>
				</g>
				<g>
					<rect x="369.159" y="448.325" style="fill:#455A64;" width="52.659" height="11.392"/>
					<g>
						<path style="fill:#263238;" d="M421.653,450.112c0,0.144-11.715,0.26-26.163,0.26c-14.453,0-26.166-0.117-26.166-0.26
							s11.713-0.26,26.166-0.26C409.938,449.851,421.653,449.968,421.653,450.112z"/>
					</g>
					<g>
						<path style="fill:#263238;" d="M421.636,452.718c0,0.144-11.715,0.26-26.163,0.26c-14.453,0-26.166-0.117-26.166-0.26
							c0-0.144,11.713-0.26,26.166-0.26C409.921,452.458,421.636,452.574,421.636,452.718z"/>
					</g>
					<g>
						<path style="fill:#263238;" d="M421.636,455.325c0,0.144-11.715,0.26-26.163,0.26c-14.453,0-26.166-0.117-26.166-0.26
							s11.713-0.26,26.166-0.26C409.921,455.064,421.636,455.181,421.636,455.325z"/>
					</g>
					<g>
						<path style="fill:#263238;" d="M421.636,457.931c0,0.144-11.715,0.26-26.163,0.26c-14.453,0-26.166-0.117-26.166-0.26
							s11.713-0.26,26.166-0.26C409.921,457.671,421.636,457.788,421.636,457.931z"/>
					</g>
					<polygon style="fill:#E0E0E0;" points="390.066,448.325 390.935,459.718 398.368,459.718 398.754,448.325 					"/>
				</g>
			</g>
			<g>
				<g>
					<rect x="388.326" y="437.059" style="fill:#263238;" width="52.659" height="11.393"/>
					<polygon style="fill:#E0E0E0;" points="409.232,437.059 410.101,448.451 417.535,448.451 417.921,437.059 					"/>
				</g>
				<g>
					<rect x="375.548" y="437.058" style="fill:#455A64;" width="52.659" height="11.393"/>
					<g>
						<path style="fill:#263238;" d="M428.042,438.845c0,0.144-11.715,0.26-26.163,0.26c-14.453,0-26.166-0.117-26.166-0.26
							c0-0.144,11.713-0.26,26.166-0.26C416.327,438.585,428.042,438.701,428.042,438.845z"/>
					</g>
					<g>
						<path style="fill:#263238;" d="M428.024,441.452c0,0.144-11.715,0.26-26.163,0.26c-14.453,0-26.166-0.117-26.166-0.26
							s11.713-0.26,26.166-0.26C416.309,441.191,428.024,441.308,428.024,441.452z"/>
					</g>
					<g>
						<path style="fill:#263238;" d="M428.024,444.058c0,0.144-11.715,0.26-26.163,0.26c-14.453,0-26.166-0.117-26.166-0.26
							c0-0.144,11.713-0.26,26.166-0.26C416.309,443.798,428.024,443.914,428.024,444.058z"/>
					</g>
					<g>
						<path style="fill:#263238;" d="M428.024,446.665c0,0.144-11.715,0.26-26.163,0.26c-14.453,0-26.166-0.117-26.166-0.26
							c0-0.144,11.713-0.26,26.166-0.26C416.309,446.404,428.024,446.521,428.024,446.665z"/>
					</g>
					<polygon style="fill:#E0E0E0;" points="396.455,437.059 397.323,448.451 404.757,448.451 405.143,437.059 					"/>
				</g>
			</g>
		</g>
		<g>
			<g>
				<rect x="346.512" y="436.936" style="fill:#E8505B;" width="52.659" height="11.393"/>
				<rect x="346.512" y="436.936" style="opacity:0.2;" width="52.659" height="11.393"/>
				<polygon style="fill:#E0E0E0;" points="367.419,436.936 368.288,448.328 375.721,448.328 376.107,436.936 				"/>
			</g>
			<g>
				<rect x="340.729" y="448.325" style="fill:#E8505B;" width="52.659" height="11.392"/>
				<rect x="340.729" y="448.325" style="opacity:0.2;" width="52.659" height="11.392"/>
				<polygon style="fill:#E0E0E0;" points="361.636,448.325 362.505,459.718 369.939,459.718 370.325,448.325 				"/>
			</g>
			<g>
				<rect x="327.952" y="448.325" style="fill:#E8505B;" width="52.659" height="11.392"/>
				<g style="opacity:0.2;">
					<path d="M380.446,450.112c0,0.144-11.715,0.26-26.163,0.26c-14.453,0-26.166-0.117-26.166-0.26s11.713-0.26,26.166-0.26
						C368.731,449.851,380.446,449.968,380.446,450.112z"/>
				</g>
				<g style="opacity:0.2;">
					<path d="M380.428,452.718c0,0.144-11.715,0.26-26.163,0.26c-14.453,0-26.166-0.117-26.166-0.26
						c0-0.144,11.713-0.26,26.166-0.26C368.713,452.458,380.428,452.574,380.428,452.718z"/>
				</g>
				<g style="opacity:0.2;">
					<path d="M380.428,455.325c0,0.144-11.715,0.26-26.163,0.26c-14.453,0-26.166-0.117-26.166-0.26s11.713-0.26,26.166-0.26
						C368.713,455.064,380.428,455.181,380.428,455.325z"/>
				</g>
				<g style="opacity:0.2;">
					<path d="M380.428,457.931c0,0.144-11.715,0.26-26.163,0.26c-14.453,0-26.166-0.117-26.166-0.26s11.713-0.26,26.166-0.26
						C368.713,457.671,380.428,457.788,380.428,457.931z"/>
				</g>
				<polygon style="fill:#E0E0E0;" points="348.859,448.325 349.727,459.718 357.161,459.718 357.547,448.325 				"/>
			</g>
			<g>
				<rect x="335.555" y="436.936" style="fill:#E8505B;" width="52.659" height="11.393"/>
				<g style="opacity:0.2;">
					<path d="M388.049,438.722c0,0.144-11.715,0.26-26.163,0.26c-14.453,0-26.166-0.117-26.166-0.26s11.713-0.26,26.166-0.26
						C376.333,438.462,388.049,438.578,388.049,438.722z"/>
				</g>
				<g style="opacity:0.2;">
					<path d="M388.031,441.329c0,0.144-11.715,0.26-26.163,0.26c-14.453,0-26.166-0.117-26.166-0.26
						c0-0.144,11.713-0.26,26.166-0.26C376.316,441.068,388.031,441.185,388.031,441.329z"/>
				</g>
				<g style="opacity:0.2;">
					<path d="M388.031,443.935c0,0.144-11.715,0.26-26.163,0.26c-14.453,0-26.166-0.117-26.166-0.26s11.713-0.26,26.166-0.26
						C376.316,443.675,388.031,443.792,388.031,443.935z"/>
				</g>
				<g style="opacity:0.2;">
					<path d="M388.031,446.542c0,0.144-11.715,0.26-26.163,0.26c-14.453,0-26.166-0.117-26.166-0.26
						c0-0.144,11.713-0.26,26.166-0.26C376.316,446.282,388.031,446.398,388.031,446.542z"/>
				</g>
				<polygon style="fill:#E0E0E0;" points="356.461,436.936 357.33,448.328 364.764,448.328 365.15,436.936 				"/>
			</g>
		</g>
	</g>
	<g>
		<g>
			<g>
				<rect x="97.195" y="448.325" style="fill:#263238;" width="52.659" height="11.392"/>
				<polygon style="fill:#E0E0E0;" points="118.102,448.325 118.971,459.718 126.405,459.718 126.791,448.325 				"/>
			</g>
			<g>
				<rect x="84.418" y="448.325" style="fill:#455A64;" width="52.659" height="11.392"/>
				<g>
					<path style="fill:#263238;" d="M136.912,450.112c0,0.144-11.715,0.26-26.163,0.26c-14.453,0-26.166-0.117-26.166-0.26
						s11.713-0.26,26.166-0.26C125.197,449.851,136.912,449.968,136.912,450.112z"/>
				</g>
				<g>
					<path style="fill:#263238;" d="M136.894,452.718c0,0.144-11.715,0.26-26.163,0.26c-14.453,0-26.166-0.117-26.166-0.26
						c0-0.144,11.713-0.26,26.166-0.26C125.179,452.458,136.894,452.574,136.894,452.718z"/>
				</g>
				<g>
					<path style="fill:#263238;" d="M136.894,455.325c0,0.144-11.715,0.26-26.163,0.26c-14.453,0-26.166-0.117-26.166-0.26
						s11.713-0.26,26.166-0.26C125.179,455.064,136.894,455.181,136.894,455.325z"/>
				</g>
				<g>
					<path style="fill:#263238;" d="M136.894,457.931c0,0.144-11.715,0.26-26.163,0.26c-14.453,0-26.166-0.117-26.166-0.26
						s11.713-0.26,26.166-0.26C125.179,457.671,136.894,457.788,136.894,457.931z"/>
				</g>
				<polygon style="fill:#F5F5F5;" points="105.324,448.325 106.193,459.718 113.627,459.718 114.013,448.325 				"/>
			</g>
		</g>
		<g>
			<g>
				<rect x="90.789" y="437.059" style="fill:#263238;" width="52.659" height="11.393"/>
				<polygon style="fill:#E0E0E0;" points="111.696,437.059 112.565,448.451 119.998,448.451 120.385,437.059 				"/>
			</g>
			<g>
				<rect x="78.011" y="437.058" style="fill:#455A64;" width="52.659" height="11.393"/>
				<g>
					<path style="fill:#263238;" d="M130.505,438.845c0,0.144-11.715,0.26-26.163,0.26c-14.453,0-26.166-0.117-26.166-0.26
						c0-0.144,11.713-0.26,26.166-0.26C118.79,438.585,130.505,438.701,130.505,438.845z"/>
				</g>
				<g>
					<path style="fill:#263238;" d="M130.488,441.452c0,0.144-11.715,0.26-26.163,0.26c-14.453,0-26.166-0.117-26.166-0.26
						s11.713-0.26,26.166-0.26C118.773,441.191,130.488,441.308,130.488,441.452z"/>
				</g>
				<g>
					<path style="fill:#263238;" d="M130.488,444.058c0,0.144-11.715,0.26-26.163,0.26c-14.453,0-26.166-0.117-26.166-0.26
						c0-0.144,11.713-0.26,26.166-0.26C118.773,443.798,130.488,443.914,130.488,444.058z"/>
				</g>
				<g>
					<path style="fill:#263238;" d="M130.488,446.665c0,0.144-11.715,0.26-26.163,0.26c-14.453,0-26.166-0.117-26.166-0.26
						c0-0.144,11.713-0.26,26.166-0.26C118.773,446.404,130.488,446.521,130.488,446.665z"/>
				</g>
				<polygon style="fill:#F5F5F5;" points="98.918,437.059 99.787,448.451 107.221,448.451 107.607,437.059 				"/>
			</g>
		</g>
	</g>
</g>
</svg>
